<svg width="202" height="138" viewBox="0 0 202 138" fill="none" xmlns="http://www.w3.org/2000/svg">
<path fill-rule="evenodd" clip-rule="evenodd" d="M101 100.78C92.0867 122.895 74.1611 138 53.5 138C23.9528 138 0 107.108 0 69C0 30.8924 23.9528 0 53.5 0C74.1611 0 92.0867 15.1051 101 37.2199C109.913 15.1051 127.839 0 148.5 0C178.047 0 202 30.8924 202 69C202 107.108 178.047 138 148.5 138C127.839 138 109.913 122.895 101 100.78ZM53.5 125C67.5331 125 79.8992 115.396 87.1664 100.805C84.9301 101.578 82.5167 102 80 102C68.402 102 59 93.0457 59 82C59 70.9543 68.402 62 80 62C85.3395 62 90.2135 63.8979 93.919 67.0239C92.5868 38.5441 74.9998 16 53.5 16C31.1325 16 13 40.4005 13 70.5C13 100.6 31.1325 125 53.5 125ZM151.5 125C166.373 125 179.374 114.211 186.416 98.1314C182.939 100.563 178.645 102 174 102C162.402 102 153 93.0457 153 82C153 70.9543 162.402 62 174 62C181.633 62 188.314 65.878 191.991 71.678C191.997 71.2863 192 70.8936 192 70.5C192 40.4005 173.868 16 151.5 16C129.132 16 111 40.4005 111 70.5C111 100.6 129.132 125 151.5 125Z" fill="#3F825E"/>
</svg>
