<svg width="202" height="138" viewBox="0 0 202 138" fill="none" xmlns="http://www.w3.org/2000/svg">
<path fill-rule="evenodd" clip-rule="evenodd" d="M101 100.78C92.0867 122.895 74.1611 138 53.5 138C23.9528 138 0 107.108 0 69C0 30.8924 23.9528 0 53.5 0C74.1611 0 92.0867 15.1051 101 37.2199C109.913 15.1051 127.839 0 148.5 0C178.047 0 202 30.8924 202 69C202 107.108 178.047 138 148.5 138C127.839 138 109.913 122.895 101 100.78ZM53.5 123C75.8675 123 94 98.5995 94 68.5C94 38.4005 75.8675 14 53.5 14C31.4979 14 13.5936 37.6097 13.0145 67.0294C16.8663 62.7278 22.5986 60 29 60C40.598 60 50 68.9543 50 80C50 91.0457 40.598 100 29 100C25.5102 100 22.2192 99.1893 19.3233 97.7548C26.513 112.933 39.1329 123 53.5 123ZM151.5 125C173.868 125 192 100.6 192 70.5C192 40.4005 173.868 16 151.5 16C130.931 16 113.943 36.6349 111.344 63.3609C114.679 61.2379 118.688 60 123 60C134.598 60 144 68.9543 144 80C144 91.0457 134.598 100 123 100C120.937 100 118.943 99.7166 117.059 99.1883C124.201 114.682 136.955 125 151.5 125Z" fill="#3F825E"/>
</svg>
