<?xml version="1.0" encoding="UTF-8"?>
      <svg xmlns="http://www.w3.org/2000/svg" xmlns:xlink="http://www.w3.org/1999/xlink" viewBox="0 0 256 256">
        <defs>
          <style>
            .cls-1 {
              fill: #e3dfcf;
              stroke: #e3dfcf;
            }

            .cls-1,
            .cls-2,
            .cls-3,
            .cls-4,
            .cls-5,
            .cls-6,
            .cls-7,
            .cls-8,
            .cls-9,
            .cls-10,
            .cls-11,
            .cls-12,
            .cls-13,
            .cls-14,
            .cls-15,
            .cls-16,
            .cls-17 {
              stroke-miterlimit: 10;
            }

            .cls-18 {
              fill: #8fc9d1;
            }

            .cls-2 {
              stroke: #947363;
            }

            .cls-2,
            .cls-16 {
              fill: #947363;
            }

            .cls-3 {
              fill: #00622a;
              stroke: #00622a;
            }

            .cls-4 {
              fill: #fdf8e2;
              stroke: #fdf8e2;
            }

            .cls-19 {
              fill: #f3d1bb;
            }

            .cls-5 {
              fill: #936037;
              stroke: #936037;
            }

            .cls-20 {
              fill: #4c758f;
            }

            .cls-6 {
              fill: #695145;
            }

            .cls-6,
            .cls-16 {
              stroke: #695145;
            }

            .cls-7 {
              fill: #008a3b;
              stroke: #008a3b;
            }

            .cls-8 {
              fill: #0298e3;
              stroke: #0298e3;
            }

            .cls-9,
            .cls-10 {
              stroke: #7b6450;
            }

            .cls-9,
            .cls-21 {
              fill: none;
            }

            .cls-10 {
              fill: #7b6450;
            }

            .cls-22 {
              fill: #000;
            }

            .cls-23 {
              clip-path: url(#clippath-1);
            }

            .cls-11 {
              fill: #02aaff;
              stroke: #02aaff;
            }

            .cls-24 {
              fill: #957c67;
            }

            .cls-12 {
              fill: #ac4947;
              stroke: #ac4947;
            }

            .cls-25 {
              fill: #fff;
              opacity: 0.37;
            }

            .cls-13 {
              fill: #aa8a65;
              stroke: #aa8a65;
            }

            .cls-26 {
              clip-path: url(#clippath);
            }

            .cls-14 {
              fill: #673a2b;
              stroke: #673a2b;
            }

            .cls-27 {
              fill: #b95152;
            }

            .cls-28 {
              fill: #e0c1ad;
            }

            .cls-29 {
              fill: #005323;
            }

            .cls-15 {
              fill: #e75f5e;
              stroke: #e75f5e;
            }

            .cls-17,
            .cls-30 {
              fill: #006d2e;
              stroke: #006d2e;
            }
          </style>
          <clipPath id="clippath">
            <path
              class="cls-21"
              d="m0,247l41.07-18.22c2.01-.87,4.17-1.32,6.36-1.32h93.46l38.93-26.39c4.44-3.01,9.66-4.64,15.02-4.7l82.18-.91v83H.51l-.51-31.46Z"
            />
          </clipPath>
          <clipPath id="clippath-1">
            <rect class="cls-21" x="4" y="1" width="256" height="256" />
          </clipPath>
        </defs>
        <g id="Clouds">
          <path
            class="cls-25"
            d="m30.58,36.51l4.09-1.94c8.44-4,17.67-6.08,27.02-6.08h11.21c3.71,0,7.39-.6,10.91-1.77h0c2.44-.81,5-1.23,7.58-1.23h13.51c3.64,0,7.17,1.18,10.08,3.36l2.15,1.61c.89.66,1.51,1.61,1.78,2.69h0c.37,1.5,1.34,2.77,2.68,3.54h0c3.03,1.73,4.91,4.96,4.91,8.45h0c0,4.01-1.82,7.81-4.96,10.32h0c-3.26,2.61-7.32,4.03-11.5,4.03h-31.32c-2.13,0-4.25-.38-6.24-1.13l-1.37-.51c-2.39-.9-4.92-1.35-7.47-1.35h-4.4c-2.49,0-4.96.29-7.38.87l-4.84,1.15c-1.34.32-2.71.5-4.09.55l-12.14.43c-4.73,0-9.33-1.53-13.12-4.37h0c-1.38-1.04-2.28-2.6-2.47-4.32h0c-.39-3.55,2.03-6.8,5.54-7.44l1.29-.23c2.2-.4,4.13-1.73,5.28-3.65h0c.77-1.29,1.91-2.32,3.27-2.96Z"
          />
          <path
            class="cls-25"
            d="m213.47,6.5h-5.48c-4.97,0-9.91.71-14.67,2.11l-4.98,1.47c-3.06.9-5.56,3.12-6.82,6.05h0c-.66,1.54-.84,3.25-.51,4.89v.06c.31,1.48,1.4,2.68,2.85,3.12l4.73,1.42c1.92.58,3.71,1.54,5.25,2.82h0c2.36,1.97,5.36,3.02,8.43,2.95l12.76-.27c3.95-.08,7.86-.8,11.59-2.13h0c.58-.33,1.21-.58,1.86-.75l2.45-.61c.38-.09.75-.2,1.12-.33l2.21-.74c2.14-.71,4.39-1.08,6.65-1.08h.55c2.52,0,4.88-1.26,6.27-3.36h0c1.14-1.71,1.64-3.76,1.41-5.8l-.21-1.92c-.27-2.43-1.82-4.52-4.06-5.48h0c-2.24-.96-4.58-1.67-6.98-2.12l-4.37-.82c-5.3-.99-10.75-.96-16.04.1h0c-1.32.26-2.67.4-4.02.4Z"
          />
          <path
            class="cls-25"
            d="m189.82,37.1l-4.49.04c-4.07.04-8.12-.45-12.03-1.44l-4.09-1.04c-2.51-.64-4.58-2.25-5.63-4.4h0c-.55-1.13-.71-2.38-.45-3.6v-.05c.24-1.09,1.13-1.98,2.31-2.32l3.87-1.08c1.57-.44,3.02-1.16,4.28-2.12h0c1.92-1.47,4.37-2.26,6.89-2.24l10.46.1c3.24.03,6.45.53,9.51,1.47h0c.48.24.99.42,1.53.53l2.01.43c.31.07.62.14.92.23l1.81.52c1.76.51,3.6.76,5.45.74h.45c2.06-.02,4,.88,5.16,2.42h0c.94,1.25,1.37,2.75,1.2,4.26l-.16,1.41c-.2,1.79-1.46,3.34-3.29,4.06h0c-1.83.72-3.74,1.27-5.7,1.61l-3.57.64c-4.34.77-8.8.79-13.14.05h0c-1.09-.18-2.19-.27-3.3-.26Z"
          />
        </g>
        <g id="People">
          <path
            class="cls-19"
            d="m98.23,171.95l1.89,2.39c1.1,1.39,3.09,1.67,4.53.65h0c1.33-.94,1.46-2.86.28-3.98l-2.85-2.7-3.85,3.65Z"
          />
          <polygon class="cls-1" points="90.97 155.15 102.59 168.3 98.23 172.68 90.98 164.39 90.97 155.15" />
          <path
            class="cls-22"
            d="m86.51,218.46l.26,6.18c.05,1.3,1.15,2.32,2.49,2.32h15.93c1.56,0,2.82-1.23,2.82-2.74h0c0-1.75-1.12-3.32-2.81-3.94l-5.01-1.82h-13.68Z"
          />
          <path
            class="cls-22"
            d="m58.01,213.46l8.68,4.43,5.12,1.95c1.73.66,2.88,2.33,2.88,4.2h0c0,1.61-1.29,2.92-2.89,2.92l-6.79-.34-9.92-4.93c-1.1-.61-1.43-2.06-.7-3.1l3.62-5.14Z"
          />
          <path
            class="cls-8"
            d="m179.01,163.46l4.49,8.69c.49.95.66,2.03.48,3.08l-2.22,12.8h12.5l1.81-11.32c.45-2.81.04-5.69-1.16-8.26l-9.9-19.99-6,1v14Z"
          />
          <path
            class="cls-11"
            d="m180.01,149.46l-13.99,1.31-.41,19.32c-.06,3.06-1.14,6.02-3.05,8.41l-8.55,10.97,10.25,8.18,11.88-17.65c1.23-1.82,1.98-3.92,2.18-6.11l.93-9.89.75-14.53Z"
          />
          <path
            class="cls-19"
            d="m196.08,90.74h5.92c1.19,0,2.15.96,2.15,2.15v1.46h-10v-1.67c0-1.07.87-1.93,1.93-1.93Z"
          />
          <polygon class="cls-28" points="202.51 99.96 195.51 99.96 195.4 94.35 202.9 94.35 202.51 99.96" />
          <path
            class="cls-27"
            d="m186.01,128.46l11.98-10.78c1.62-1.13,2.75-2.83,3.18-4.75l2.33-13.96-8.5.5-1.92,7.05c-.71,2.59-2.08,4.95-3.98,6.85l-4.1,4.1,1,11Z"
          />
          <path
            class="cls-19"
            d="m71.15,116.64l3.87-3.18h13l5.1,2.58v11.5c0,1.85-.74,3.62-2.06,4.92h0c-1.41,1.39-3.3,2.17-5.28,2.17h-7.41c-1.89,0-3.69-.81-4.94-2.22l-.11-.12c-1.4-1.58-2.17-3.62-2.17-5.73v-9.91Z"
          />
          <path class="cls-19" d="m92.78,120.22l2.03,4.54c.25.57-.15,1.19-.88,1.37l-1.41.34.26-6.24Z" />
          <path
            class="cls-3"
            d="m91.01,172.46l5.96,16.99c.69,2.52,1.15,5.1,1.36,7.7l1.68,20.82h-13l-.71-18.2c-.08-2.14-.63-4.24-1.6-6.16l-1.69-3.33,2-17.8h6Z"
          />
          <path
            class="cls-7"
            d="m67.01,217.46l-9-4,8.54-14.29c2.61-3.81,4.16-8.26,4.49-12.87l.97-13.85h13l-1.92,19.05c-.35,3.45-1.58,6.75-3.57,9.58l-12.52,16.37Z"
          />
          <path
            class="cls-19"
            d="m165.65,91.65l4.42-5.69h13.26l2.67,2.61c1.59,1.56,2.49,3.7,2.49,5.93v8.59c0,1.98-.79,3.87-2.18,5.27l-.14.14c-1.35,1.35-3.17,2.1-5.07,2.1h-8.53c-1.58,0-3.09-.68-4.14-1.88l-.94-1.07c-1.19-1.36-1.84-3.1-1.84-4.9v-11.1Z"
          />
          <path class="cls-19" d="m187.51,95.42l2.95,3.99c.4.54-.07,1.18-.97,1.33l-1.98.32v-5.64Z" />
          <path
            class="cls-15"
            d="m172.15,111.06h6.63c4.13,0,7.49,3.36,7.49,7.49v32.31h-20v-33.92c0-3.24,2.63-5.88,5.88-5.88Z"
          />
          <path
            class="cls-12"
            d="m181.76,188.96v3.46c0,2.11,1.41,3.82,3.15,3.82h17.18c1.19,0,2.16-1.17,2.16-2.62h0c0-1.84-1.12-3.39-2.62-3.64l-6.13-1.02h-13.75Z"
          />
          <path
            class="cls-12"
            d="m153.64,190.45l-2.59,2.84c-1,1.1-.99,2.79.03,3.87l5.94,6.3,8.76,4.46c1.4.34,2.87-.06,3.9-1.06h0c1.13-1.09,1.12-2.91-.04-3.97l-5.02-4.64-10.98-7.79Z"
          />
          <path
            class="cls-24"
            d="m205.51,197.64h-3.75v-63.54c0-1.64.67-3.21,1.85-4.35l.75-.72c.62-.59,1.64-.15,1.63.7l-.48,67.9Z"
          />
          <path
            class="cls-5"
            d="m89.51,113.46h-14.16l-4.21,3.18v9.91c0,1.44.39,2.85,1.13,4.1l2.09-.13c.64-.04,1.24-.29,1.7-.71h0c.94-.87,1.47-2.04,1.47-3.27v-2.88c0-.78.25-1.55.73-2.2l.89-1.23c.36-.5.91-.85,1.54-1l.34-.08c1.99-.46,3.8-1.4,5.25-2.73l3.23-2.97Z"
          />
          <path
            class="cls-17"
            d="m71.15,116.64l29.43.29c.68,0,1.23-.54,1.23-1.21h0c0-.6-.45-1.11-1.05-1.18l-7.58-.9c-.63-.08-1.21-.4-1.61-.9h0c-1.89-2.39-4.76-3.78-7.81-3.78h-3.43c-3.16,0-6.17,1.36-8.26,3.74l-1.42,1.61c-.65.74-.41,1.91.49,2.33h0Z"
          />
          <path
            class="cls-19"
            d="m196.51,142.96l6.99,1.49c.5.07,1,0,1.45-.22h0c1.16-.56,2.04-1.55,2.46-2.76l.24-.69c.22-.62.05-1.31-.42-1.76h0c-1.12-1.08-2.54-1.81-4.07-2.11l-4.65-.94-2,7Z"
          />
          <path
            class="cls-14"
            d="m176.01,95.46l11.81-4.54c.77-.3,1.4-.87,1.77-1.6h0c.27-.54.27-1.17,0-1.71l-.35-.7c-.77-1.54-2.21-2.65-3.91-2.98l-.56-.11c-1.15-.23-2.34-.16-3.45.21h0c-.84.28-1.76.25-2.58-.08l-1.96-.78c-1.17-.47-2.41-.71-3.67-.71h-.33c-1.16,0-2.28.34-3.25.98l-.93.62c-.4.27-.82.51-1.24.72l-1.22.61c-1.36.68-2.4,1.88-2.88,3.33h0c-.16.49-.2,1-.12,1.51l.65,3.88c.15.88.01,1.78-.39,2.57h0c-.25.51-.35,1.08-.27,1.64l.79,5.52c.06.41.18.8.37,1.17l.05.1c.44.89,1.09,1.65,1.89,2.24l2.42,1.76c.53.39,1.26.35,1.74-.09l.62-.56,1.7-3.41c.19-.37.19-.81,0-1.18l-.61-1.21c-.07-.13-.12-.27-.15-.41l-.75-3.02c-.13-.5-.13-1.03,0-1.54l.51-2.06c.17-.69.79-1.17,1.5-1.17h0c.51,0,.99.2,1.35.56l.44.44h1Z"
          />
          <path
            class="cls-6"
            d="m166.01,115.46l1.21-.61c1.83-.92,3.85-1.39,5.9-1.39h0c.58,0,1.16.14,1.68.4l.86.43c1.48.74,2.54,2.13,2.87,3.76l.08.39c.27,1.34.22,2.72-.14,4.03l-2.45,9-10.35,19.29.13-4.6,8.22-18.69,1-8-1-2-3-2-4.65,2.8-.35-2.8Z"
          />
          <path
            class="cls-2"
            d="m165.24,110.36h0c-2.23-2.61-5.38-4.26-8.79-4.63l-2.61-.28c-1.97-.21-3.85.9-4.61,2.73h0c-.8,1.93-1.22,4-1.22,6.09v14.86s-1.66,3.2-1.66,3.2c-.55,1.06-.84,2.23-.84,3.42v15.23c0,1.36.69,2.63,1.84,3.37h0c1.25.8,2.68,1.28,4.17,1.39l9.47.7c2.46.18,4.56-1.74,4.61-4.2l.74-38.82c.02-1.12-.37-2.22-1.1-3.07Z"
          />
          <polygon class="cls-20" points="157.62 133.77 158.01 131.46 160.01 132.46 159.01 134.46 157.62 133.77" />
          <path
            class="cls-18"
            d="m160.05,142.45l.66-3.38c.21-1.06.13-2.15-.21-3.17l-.25-.76c-.14-.43-.48-.77-.91-.91l-1.43-.48c-.54-.18-1.14-.04-1.55.37l-.28.28c-.69.69-1.14,1.57-1.3,2.53l-.75,4.53,6.03.99Z"
          />
          <path
            class="cls-6"
            d="m158.19,106.13l.64,3.4c.12.62.16,1.24.12,1.87l-.94,16.06-1.22.92c-1.76,1.32-4.01,1.81-6.16,1.33l-2.61-.58v-15.19c0-2.88.04-5.37,2-7.49l1-1c.13-.1.35-.2.63-.31,1.77-.67,3.75-.49,5.43.39l1.12.59Z"
          />
          <line class="cls-16" x1="145.51" y1="150.46" x2="165.6" y2="153.25" />
          <path
            class="cls-6"
            d="m153.88,149.75l3.95.48c1.11.13,2.12-.64,2.28-1.74l.89-6.02-8.31-1-.84,5.64c-.19,1.29.72,2.49,2.02,2.65Z"
          />
          <path
            class="cls-27"
            d="m169.92,115.28h0c.38-.36.88-.57,1.41-.57h2.71c.95,0,1.86.37,2.54,1.02h0c.94.91,1.65,2.03,2.04,3.28l3.87,12.1c.32,1,1.18,1.73,2.21,1.88l14.56,2.15-2.5,8.41-16.48-2.8c-2.93-.5-5.35-2.58-6.28-5.41l-5.16-15.72c-.51-1.54-.08-3.23,1.08-4.35Z"
          />
          <path
            class="cls-4"
            d="m78.28,135.06h5.67c3.88,0,7.03,3.15,7.03,7.03v30.74h-19.23v-31.23c0-3.61,2.93-6.54,6.54-6.54Z"
          />
          <path
            class="cls-10"
            d="m71.01,138.46l4.62-1.54c.91-.3,1.87-.46,2.83-.46h0c.97,0,1.89.46,2.48,1.24h0c1.32,1.76,1.82,3.99,1.39,6.15h0c-.21,1.05-.75,2-1.54,2.73l-5.35,4.88-3.44,1.01-1-14Z"
          />
          <path
            class="cls-13"
            d="m70.18,135.24l-.19-.27c-1.91-2.72-5.03-4.34-8.36-4.34h-2.75c-2.44,0-4.67,1.35-5.81,3.51h0c-.37.69-.56,1.47-.56,2.25v30.44c0,2.43.69,4.8,1.99,6.86h0c1.01,1.59,2.76,2.56,4.65,2.56h6.01c2.62,0,5.08-1.28,6.59-3.42h0v-32.63c0-1.77-.55-3.51-1.57-4.96Z"
          />
          <path
            class="cls-10"
            d="m53.51,148.02h0c.82.89,1.82,1.53,2.91,1.84l1.59.46v16.09l-.72.28c-1.1.43-2.29.33-3.34-.28h0s-.44-18.4-.44-18.4Z"
          />
          <path
            class="cls-10"
            d="m58.01,142.96h0c-.82-.26-1.82-.45-2.91-.54l-1.59-.14v-4.75s.71-.08.71-.08c1.1-.13,2.31-.1,3.35.08h0s.44,5.43.44,5.43Z"
          />
          <polyline class="cls-9" points="61.02 130.21 64.01 137.96 64.01 149.96" />
          <path
            class="cls-19"
            d="m61.01,171.46l-.67,4.72c-.18,1.28.67,2.48,1.94,2.74h0c1.55.31,3.07-.62,3.51-2.14l1.23-4.32-6-1Z"
          />
          <path
            class="cls-1"
            d="m73.62,140.43l-7.88,11.16c-1.8,2.55-3.03,5.47-3.61,8.54l-2.13,11.34,8,1,1.77-8.84c.81-4.07,2.45-7.92,4.81-11.33l4.01-5.79c.93-1.35,1.56-2.89,1.83-4.5h0c.31-1.86-1.12-3.54-3-3.54h0c-1.51,0-2.93.73-3.8,1.97Z"
          />
        </g>
        <g id="Ground">
          <g class="cls-26">
            <path class="cls-30" d="m260,256H4V0h256v256Z" />
          </g>
          <g class="cls-23">
            <path
              class="cls-29"
              d="m279.01,200.96l-86.89.95c-2.5.03-4.94.78-7.02,2.18l-36.33,24.39c-4.15,2.79-9.06,4.23-14.07,4.14l-82.73-1.54c-4.22-.08-8.4.81-12.21,2.61L1,252l.51-6.54,39.6-17.95c2.25-1.02,4.7-1.53,7.17-1.49l85.26,1.34c4.38.07,8.68-1.21,12.31-3.66l37.7-25.46c1.71-1.15,3.72-1.78,5.78-1.8l87.56-.97,2.13,5.5Z"
            />
          </g>
        </g>
      </svg>