<svg width="21" height="20" viewBox="0 0 21 20" fill="none" xmlns="http://www.w3.org/2000/svg">
<path d="M5.66583 12.8057L11.5453 6.92623L13.5439 8.92485L7.66445 14.8043H5.66583V12.8057ZM10.5169 17.7149C12.5754 17.7149 14.5496 16.8972 16.0052 15.4416C17.4608 13.986 18.2785 12.0118 18.2785 9.95327C18.2785 7.89476 17.4608 5.92055 16.0052 4.46496C14.5496 3.00937 12.5754 2.19163 10.5169 2.19163C8.45834 2.19163 6.48414 3.00937 5.02855 4.46496C3.57296 5.92055 2.75521 7.89476 2.75521 9.95327C2.75521 12.0118 3.57296 13.986 5.02855 15.4416C6.48414 16.8972 8.45834 17.7149 10.5169 17.7149ZM15.0768 7.38223L14.1066 8.35243L12.1177 6.36351L13.0879 5.39331C13.2916 5.17986 13.6312 5.17986 13.835 5.39331L15.0768 6.63517C15.2903 6.83891 15.2903 7.17849 15.0768 7.38223ZM10.5169 0.251221C11.7909 0.251221 13.0526 0.502172 14.2297 0.989745C15.4068 1.47732 16.4763 2.19197 17.3772 3.09289C18.2782 3.9938 18.9928 5.06335 19.4804 6.24046C19.968 7.41756 20.2189 8.67918 20.2189 9.95327C20.2189 12.5264 19.1967 14.9942 17.3772 16.8137C15.5578 18.6331 13.09 19.6553 10.5169 19.6553C9.24276 19.6553 7.98115 19.4044 6.80404 18.9168C5.62693 18.4292 4.55739 17.7146 3.65647 16.8137C1.83698 14.9942 0.814804 12.5264 0.814804 9.95327C0.814804 7.38013 1.83698 4.91237 3.65647 3.09289C5.47596 1.2734 7.94371 0.251221 10.5169 0.251221Z" fill="#3F825E"/>
</svg>
