<svg width="201" height="170" viewBox="0 0 201 170" fill="none" xmlns="http://www.w3.org/2000/svg">
<path d="M157.694 113.215C153.368 105.297 148.105 84.146 165.104 65.4425C169.58 63.7112 175.637 58.8815 164.051 53.4131C149.569 46.5775 145.663 62.6865 116.755 39.0026C86.0578 13.8526 65.7261 54.3964 85.8761 55.6503C126.141 58.1558 135.066 76.886 119.413 96.6645C103.759 116.443 67.797 87.0494 65.1033 76.5897C62.9484 68.2219 49.2461 70.8684 42.6643 73.2376C38.4323 75.1419 29.51 80.7927 27.6761 88.1612C25.3838 97.3718 46.4517 94.2322 48.3374 109.883C50.223 125.535 27.8103 135.598 31.6539 146.087C35.4975 156.576 39.7452 158.72 60.0244 161.495C108.279 168.099 90.743 151.937 116.787 142.722C142.831 133.508 133.319 143.48 158.191 145.128C178.088 146.447 166.15 124.402 157.694 113.215Z" stroke="#3F825E" stroke-width="1.26422" stroke-linecap="round" stroke-linejoin="round" stroke-dasharray="4.74 4.74"/>
<path d="M44.9106 49.8103C44.2193 49.9322 43.5078 49.7745 42.9328 49.3719C42.3577 48.9692 41.9662 48.3546 41.8442 47.6632C41.7223 46.9719 41.8801 46.2604 42.2827 45.6854C42.6854 45.1103 43.3 44.7188 43.9913 44.5969C44.6827 44.475 45.3941 44.6327 45.9692 45.0354C46.5442 45.438 46.9358 46.0526 47.0577 46.744C47.1181 47.0863 47.1104 47.4372 47.0352 47.7765C46.9599 48.1159 46.8186 48.4371 46.6192 48.7218C46.4198 49.0066 46.1663 49.2492 45.8732 49.436C45.58 49.6228 45.2529 49.75 44.9106 49.8103ZM43.164 39.9048C41.2282 40.2461 39.5073 41.3425 38.3799 42.9526C37.2525 44.5627 36.8108 46.5548 37.1522 48.4906C38.1174 53.9647 46.8411 60.7586 46.8411 60.7586C46.8411 60.7586 52.715 51.3907 51.7498 45.9166C51.4085 43.9809 50.3121 42.26 48.702 41.1325C47.0918 40.0051 45.0998 39.5635 43.164 39.9048Z" fill="#3F825E"/>
<circle cx="48.5499" cy="70.804" r="6.45678" transform="rotate(10 48.5499 70.804)" fill="#3F825E"/>
<g clip-path="url(#clip0_283_599)">
<path d="M163.291 121.887L168.185 111.147L169.259 111.636L168.77 112.71L176.288 116.136L173.99 118.332L173.841 121.506L166.323 118.08L164.365 122.376L163.291 121.887ZM170.01 117.815C170.306 117.95 170.606 117.96 170.913 117.845C171.219 117.731 171.44 117.526 171.574 117.231C171.708 116.935 171.718 116.634 171.604 116.328C171.489 116.021 171.284 115.801 170.989 115.667C170.694 115.533 170.393 115.523 170.086 115.637C169.78 115.752 169.56 115.957 169.426 116.252C169.291 116.547 169.281 116.848 169.396 117.154C169.51 117.461 169.715 117.681 170.01 117.815Z" fill="#3F825E"/>
</g>
<defs>
<clipPath id="clip0_283_599">
<rect width="14.1633" height="14.1633" fill="white" transform="translate(165.99 108.849) rotate(24.5)"/>
</clipPath>
</defs>
</svg>
