<svg width="1380" height="952" viewBox="0 0 1380 952" fill="none" xmlns="http://www.w3.org/2000/svg">
<path fill-rule="evenodd" clip-rule="evenodd" d="M329.203 1.15731C328.037 0.813779 326.809 0.740159 325.611 0.94203C324.413 1.1439 323.277 1.61596 322.289 2.3224L271.012 38.9434L202.687 32.883C200.784 32.7162 198.884 33.2358 197.331 34.3479L143.648 72.6906C142.197 73.7275 141.133 75.2198 140.627 76.9304C140.12 78.641 140.2 80.4717 140.854 82.1317L193.63 216.112C194.076 217.243 194.773 218.257 195.67 219.078C196.566 219.899 197.638 220.505 198.804 220.85C199.97 221.195 201.198 221.27 202.397 221.068C203.596 220.867 204.733 220.395 205.723 219.689L256.999 183.068L325.324 189.128C326.562 189.231 327.806 189.049 328.963 188.598C329.571 188.358 330.148 188.044 330.68 187.663L384.363 149.321C385.815 148.284 386.878 146.791 387.384 145.081C387.891 143.37 387.811 141.539 387.157 139.88L334.381 5.89942C333.935 4.76723 333.237 3.75163 332.34 2.92989C331.442 2.10814 330.37 1.5019 329.203 1.15731ZM251.824 167.394C251.216 167.634 250.639 167.948 250.107 168.328L204.76 200.711L158.031 82.0828L204.223 49.0877L205.257 49.1748L251.824 167.394ZM369.98 139.928L323.788 172.924L322.755 172.836L276.187 54.6175C276.796 54.3806 277.374 54.07 277.908 53.6925L323.251 21.3002L369.98 139.928ZM441.161 354.309C441.505 353.259 442.634 352.687 443.684 353.03C448.469 354.596 452.888 356.649 456.927 359.081C457.873 359.651 458.179 360.88 457.609 361.826C457.039 362.772 455.81 363.078 454.864 362.508C451.077 360.228 446.933 358.302 442.44 356.832C441.39 356.489 440.818 355.359 441.161 354.309ZM431.239 352.22C431.125 353.318 430.141 354.116 429.043 354.001C424.703 353.549 420.113 353.491 415.278 353.891C414.177 353.982 413.211 353.164 413.119 352.063C413.028 350.962 413.847 349.996 414.947 349.905C420.023 349.484 424.862 349.544 429.457 350.023C430.556 350.137 431.354 351.121 431.239 352.22ZM465.659 368.018C466.426 367.224 467.692 367.203 468.487 367.971C472.072 371.437 475.17 375.229 477.765 379.196C478.37 380.12 478.11 381.36 477.186 381.964C476.262 382.569 475.022 382.31 474.418 381.386C471.981 377.661 469.072 374.1 465.706 370.846C464.912 370.079 464.891 368.812 465.659 368.018ZM403.172 353.706C403.432 354.78 402.772 355.861 401.699 356.121C397.423 357.156 392.988 358.533 388.395 360.288C387.364 360.682 386.208 360.165 385.813 359.133C385.419 358.101 385.936 356.945 386.968 356.551C391.71 354.739 396.308 353.311 400.757 352.233C401.831 351.973 402.912 352.633 403.172 353.706ZM481.745 391.032C482.784 390.655 483.931 391.192 484.307 392.23C486.047 397.031 487.108 401.873 487.451 406.529C487.533 407.631 486.706 408.59 485.604 408.671C484.502 408.752 483.543 407.925 483.462 406.824C483.148 402.561 482.173 398.079 480.547 393.594C480.17 392.555 480.707 391.408 481.745 391.032ZM376.617 363.223C377.115 364.209 376.718 365.412 375.732 365.909C373.675 366.947 371.591 368.057 369.479 369.244C367.019 370.626 364.615 371.946 362.264 373.206C361.291 373.728 360.079 373.362 359.557 372.388C359.035 371.415 359.401 370.203 360.374 369.681C362.701 368.433 365.082 367.126 367.52 365.756C369.682 364.542 371.819 363.403 373.931 362.338C374.917 361.841 376.12 362.237 376.617 363.223ZM348.631 377.934C349.106 378.931 348.682 380.124 347.685 380.599C342.4 383.114 337.421 385.291 332.717 387.166C331.691 387.575 330.528 387.075 330.119 386.049C329.71 385.023 330.21 383.859 331.236 383.45C335.852 381.61 340.752 379.468 345.966 376.987C346.964 376.512 348.157 376.936 348.631 377.934ZM484.551 418.762C485.598 419.115 486.161 420.249 485.809 421.296C484.138 426.259 481.25 430.55 477.058 433.626C476.168 434.28 474.916 434.088 474.263 433.197C473.609 432.307 473.801 431.055 474.692 430.401C478.131 427.878 480.572 424.313 482.017 420.02C482.37 418.973 483.504 418.41 484.551 418.762ZM318.571 390.098C318.884 391.157 318.28 392.27 317.221 392.584C311.421 394.301 306.102 395.496 301.18 396.269C300.089 396.44 299.066 395.694 298.895 394.603C298.723 393.512 299.469 392.488 300.56 392.317C305.293 391.574 310.439 390.42 316.085 388.748C317.144 388.435 318.257 389.039 318.571 390.098ZM464.685 436.386C464.763 437.488 463.932 438.444 462.83 438.521C460.49 438.685 457.996 438.625 455.347 438.326C452.643 438.021 449.98 437.747 447.358 437.503C446.259 437.401 445.45 436.426 445.552 435.327C445.654 434.227 446.629 433.418 447.729 433.52C450.377 433.766 453.066 434.043 455.795 434.351C458.226 434.626 460.476 434.676 462.551 434.531C463.652 434.454 464.608 435.284 464.685 436.386ZM433.595 434.471C433.542 435.575 432.604 436.426 431.501 436.372C425.981 436.104 420.669 435.986 415.561 436.01C414.456 436.015 413.557 435.124 413.551 434.019C413.546 432.915 414.437 432.015 415.542 432.01C420.725 431.985 426.108 432.106 431.694 432.377C432.798 432.43 433.649 433.368 433.595 434.471ZM286.689 395.443C286.657 396.547 285.736 397.416 284.631 397.383C278.543 397.206 273.153 396.357 268.181 395.201C267.105 394.951 266.436 393.876 266.686 392.8C266.937 391.724 268.012 391.055 269.087 391.305C273.85 392.412 278.972 393.216 284.748 393.385C285.852 393.417 286.721 394.339 286.689 395.443ZM252.463 390.605C247.302 388.97 242.352 387.503 237.05 386.726C235.957 386.566 235.201 385.551 235.361 384.458C235.521 383.365 236.537 382.609 237.63 382.769C243.276 383.596 248.49 385.151 253.67 386.791C254.723 387.125 255.307 388.249 254.973 389.302C254.64 390.355 253.516 390.938 252.463 390.605ZM401.543 434.449C401.62 435.551 400.79 436.506 399.688 436.583C394.157 436.971 388.913 437.549 383.953 438.309C382.861 438.476 381.84 437.726 381.673 436.635C381.506 435.543 382.255 434.522 383.347 434.355C388.423 433.577 393.776 432.987 399.408 432.593C400.51 432.516 401.466 433.347 401.543 434.449ZM369.896 439.049C370.18 440.117 369.544 441.212 368.476 441.495C363.072 442.927 358.11 444.622 353.581 446.558C352.565 446.992 351.39 446.52 350.956 445.504C350.522 444.489 350.993 443.314 352.009 442.879C356.732 440.861 361.879 439.105 367.451 437.628C368.518 437.345 369.613 437.981 369.896 439.049ZM195.299 393.927C196.01 394.772 195.9 396.034 195.055 396.744C192.855 398.593 191.647 400.41 191.08 402.112C190.515 403.804 190.537 405.525 191.031 407.276C191.331 408.339 190.712 409.444 189.649 409.744C188.586 410.044 187.481 409.425 187.181 408.362C186.5 405.948 186.434 403.4 187.285 400.847C188.133 398.303 189.843 395.9 192.481 393.682C193.326 392.972 194.588 393.081 195.299 393.927ZM561.836 508.207C557.828 506.65 553.634 505.247 549.428 504.149C548.359 503.87 547.719 502.778 547.998 501.709C548.277 500.64 549.369 500 550.438 500.279C554.816 501.422 559.158 502.875 563.285 504.478C564.314 504.878 564.825 506.037 564.425 507.067C564.025 508.096 562.866 508.607 561.836 508.207ZM538.852 500.062C538.765 501.163 537.802 501.985 536.701 501.898C532.166 501.539 527.912 501.762 524.152 502.728C523.082 503.002 521.992 502.358 521.717 501.288C521.442 500.218 522.087 499.128 523.157 498.853C527.46 497.748 532.179 497.528 537.017 497.911C538.118 497.998 538.94 498.961 538.852 500.062ZM572.913 510.844C573.409 509.857 574.612 509.46 575.598 509.956C577.742 511.035 579.738 512.11 581.547 513.146C581.592 513.171 581.636 513.199 581.678 513.228C583.734 514.626 586.123 516.41 588.687 518.522C589.54 519.224 589.662 520.484 588.96 521.337C588.258 522.19 586.997 522.312 586.145 521.61C583.692 519.59 581.423 517.895 579.492 516.578C577.766 515.591 575.855 514.563 573.8 513.529C572.813 513.033 572.416 511.83 572.913 510.844ZM340.42 451.207C341.045 452.117 340.815 453.363 339.905 453.988C335.396 457.089 331.565 460.536 328.393 464.287C327.68 465.131 326.418 465.236 325.574 464.523C324.731 463.81 324.625 462.548 325.339 461.704C328.758 457.661 332.859 453.979 337.638 450.693C338.548 450.067 339.794 450.297 340.42 451.207ZM195.963 417.892C196.672 417.044 197.933 416.931 198.78 417.64C200.58 419.144 202.502 420.488 204.357 421.609C204.623 421.77 204.848 421.991 205.014 422.253C206.508 424.62 207.917 426.982 209.245 429.338C209.787 430.3 209.446 431.52 208.484 432.062C207.522 432.604 206.302 432.263 205.76 431.301C204.539 429.135 203.247 426.962 201.88 424.783C199.993 423.618 198.052 422.244 196.215 420.709C195.367 420 195.255 418.739 195.963 417.892ZM513.697 505.92C514.524 506.652 514.601 507.916 513.869 508.743C512.613 510.161 511.515 511.842 510.614 513.825C509.636 515.977 508.191 518.241 506.373 520.57C505.693 521.44 504.436 521.595 503.566 520.915C502.695 520.235 502.54 518.979 503.22 518.108C504.909 515.945 506.163 513.952 506.972 512.17C508.03 509.843 509.341 507.823 510.874 506.091C511.607 505.264 512.871 505.187 513.697 505.92ZM598.546 530.443C599.362 529.698 600.627 529.756 601.372 530.572C605.202 534.771 608.919 539.462 612.076 544.493C612.663 545.428 612.381 546.663 611.445 547.25C610.51 547.837 609.275 547.555 608.688 546.619C605.682 541.831 602.12 537.328 598.416 533.268C597.672 532.452 597.73 531.187 598.546 530.443ZM213.946 443.075C214.961 442.64 216.137 443.109 216.573 444.124C218.815 449.346 220.677 454.518 222.198 459.623C222.514 460.681 221.911 461.795 220.853 462.11C219.794 462.426 218.68 461.823 218.365 460.765C216.888 455.808 215.078 450.782 212.897 445.702C212.462 444.687 212.931 443.511 213.946 443.075ZM319.324 474.773C320.346 475.192 320.835 476.36 320.416 477.382C318.504 482.044 317.303 487.037 316.809 492.325C316.706 493.425 315.732 494.233 314.632 494.13C313.532 494.027 312.724 493.052 312.827 491.953C313.355 486.296 314.644 480.915 316.714 475.865C317.133 474.843 318.302 474.354 319.324 474.773ZM617.001 559.231C618.064 558.93 619.17 559.548 619.471 560.61C620.293 563.514 620.843 566.478 621.051 569.478C621.305 573.122 620.672 576.213 619.218 578.83C618.681 579.795 617.463 580.143 616.498 579.607C615.532 579.07 615.185 577.853 615.721 576.887C616.74 575.054 617.27 572.76 617.061 569.756C616.874 567.059 616.377 564.368 615.622 561.7C615.321 560.637 615.939 559.532 617.001 559.231ZM495.84 528.775C496.567 529.606 496.482 530.87 495.65 531.597C492.114 534.687 488.095 537.839 483.69 540.97C482.789 541.609 481.541 541.398 480.901 540.498C480.261 539.598 480.472 538.349 481.373 537.709C485.684 534.645 489.596 531.576 493.018 528.585C493.85 527.858 495.113 527.943 495.84 528.775ZM223.643 474.08C224.732 473.896 225.764 474.63 225.948 475.719C226.894 481.316 227.454 486.8 227.683 492.147C227.73 493.25 226.874 494.183 225.771 494.23C224.667 494.278 223.734 493.422 223.687 492.318C223.464 487.133 222.922 481.814 222.004 476.386C221.82 475.297 222.554 474.264 223.643 474.08ZM471.654 546.537C472.225 547.483 471.92 548.712 470.974 549.283C466.756 551.825 462.321 554.304 457.724 556.669C456.741 557.175 455.535 556.788 455.03 555.806C454.525 554.824 454.911 553.618 455.893 553.112C460.411 550.788 464.768 548.353 468.909 545.857C469.855 545.287 471.084 545.591 471.654 546.537ZM315.008 506.144C316.102 505.989 317.114 506.749 317.269 507.843C317.962 512.737 319.158 517.816 320.856 523.056C321.196 524.106 320.62 525.234 319.569 525.575C318.519 525.915 317.391 525.339 317.05 524.289C315.289 518.853 314.038 513.549 313.309 508.404C313.154 507.311 313.914 506.299 315.008 506.144ZM605.467 586.281C605.8 587.334 605.216 588.458 604.163 588.791C600.56 589.93 596.512 590.902 592.34 591.904L592.339 591.904L592.338 591.905C590.761 592.284 589.166 592.667 587.572 593.065C586.5 593.332 585.414 592.68 585.147 591.608C584.88 590.536 585.532 589.451 586.603 589.184C588.288 588.763 589.936 588.367 591.542 587.981L591.544 587.981L591.547 587.98C595.662 586.992 599.499 586.07 602.958 584.977C604.011 584.644 605.134 585.228 605.467 586.281ZM445.057 560.526C445.496 561.539 445.029 562.717 444.015 563.155C439.389 565.156 434.662 567.012 429.881 568.68C428.838 569.044 427.698 568.494 427.334 567.451C426.97 566.408 427.52 565.267 428.563 564.904C433.248 563.269 437.885 561.448 442.428 559.484C443.441 559.045 444.619 559.512 445.057 560.526ZM572.726 595.42C573.144 596.442 572.654 597.61 571.631 598.028C566.573 600.097 561.782 602.728 557.584 606.288C556.742 607.002 555.48 606.899 554.765 606.056C554.051 605.214 554.154 603.952 554.997 603.237C559.599 599.334 564.784 596.506 570.117 594.326C571.14 593.908 572.308 594.398 572.726 595.42ZM225.534 506.507C226.635 506.596 227.455 507.561 227.365 508.662C226.905 514.335 226.1 519.797 225.031 525.012C224.809 526.094 223.752 526.791 222.67 526.57C221.588 526.348 220.891 525.291 221.113 524.209C222.15 519.145 222.932 513.843 223.379 508.339C223.468 507.238 224.433 506.418 225.534 506.507ZM324.055 536.747C325.053 536.275 326.246 536.701 326.719 537.699C327.823 540.03 329.016 542.385 330.299 544.761C331.49 546.967 332.77 549.025 334.133 550.94C334.773 551.84 334.563 553.089 333.663 553.729C332.763 554.37 331.514 554.159 330.874 553.259C329.413 551.205 328.046 549.008 326.779 546.661C325.464 544.225 324.239 541.808 323.104 539.411C322.631 538.413 323.057 537.22 324.055 536.747ZM416.779 570.665C417.054 571.734 416.411 572.825 415.341 573.1C410.361 574.383 405.371 575.422 400.423 576.169C399.331 576.334 398.311 575.582 398.147 574.49C397.982 573.398 398.733 572.379 399.826 572.214C404.626 571.489 409.482 570.479 414.343 569.227C415.413 568.951 416.503 569.595 416.779 570.665ZM341.227 561.76C341.914 560.895 343.172 560.75 344.037 561.437C347.848 564.462 352.02 566.859 356.486 568.693C357.507 569.113 357.995 570.282 357.576 571.304C357.156 572.325 355.987 572.813 354.966 572.393C350.174 570.425 345.672 567.843 341.55 564.57C340.685 563.883 340.541 562.625 341.227 561.76ZM546.769 616.262C547.757 616.758 548.155 617.96 547.659 618.947C546.507 621.241 545.497 623.759 544.656 626.531C543.876 629.104 543.334 631.664 543.004 634.21C542.862 635.305 541.859 636.078 540.763 635.936C539.668 635.793 538.895 634.79 539.037 633.695C539.396 630.934 539.983 628.158 540.828 625.37C541.732 622.39 542.825 619.658 544.085 617.152C544.58 616.165 545.782 615.766 546.769 616.262ZM387.165 575.461C387.185 576.565 386.306 577.477 385.202 577.497C379.964 577.593 374.831 577.282 369.876 576.497C368.785 576.325 368.04 575.3 368.213 574.209C368.386 573.118 369.41 572.374 370.501 572.547C375.198 573.29 380.094 573.59 385.128 573.498C386.233 573.477 387.144 574.356 387.165 575.461ZM219.498 538.419C220.546 538.768 221.114 539.9 220.766 540.948C218.927 546.485 216.835 551.62 214.629 556.291C214.157 557.29 212.965 557.717 211.966 557.245C210.967 556.773 210.54 555.581 211.012 554.583C213.152 550.052 215.183 545.066 216.97 539.687C217.318 538.639 218.45 538.071 219.498 538.419ZM541.121 648.278C542.209 648.09 543.244 648.821 543.431 649.91C544.317 655.058 545.866 660.163 547.853 665.218C548.258 666.246 547.752 667.407 546.724 667.811C545.696 668.215 544.535 667.709 544.131 666.682C542.068 661.437 540.431 656.065 539.489 650.588C539.302 649.499 540.032 648.465 541.121 648.278ZM206.005 567.988C206.929 568.593 207.187 569.833 206.582 570.757C204.928 573.284 203.293 575.539 201.726 577.498C201.701 577.529 201.675 577.559 201.649 577.588C201.61 577.632 201.568 577.674 201.525 577.714C199.572 579.53 197.557 581.463 195.508 583.493C194.724 584.271 193.458 584.265 192.68 583.481C191.902 582.696 191.908 581.43 192.692 580.652C194.733 578.63 196.742 576.701 198.693 574.886C200.147 573.059 201.678 570.946 203.236 568.566C203.841 567.642 205.08 567.383 206.005 567.988ZM551.993 679.002C552.969 678.484 554.18 678.856 554.698 679.831C557.253 684.647 559.994 689.373 562.706 694.021C563.263 694.976 562.941 696.2 561.987 696.757C561.033 697.313 559.808 696.991 559.251 696.037C556.541 691.392 553.762 686.602 551.164 681.706C550.647 680.731 551.018 679.52 551.993 679.002ZM183.852 592.778C184.676 593.514 184.748 594.778 184.013 595.602C180.336 599.723 176.725 604.033 173.337 608.425C172.663 609.299 171.407 609.461 170.532 608.787C169.658 608.112 169.496 606.856 170.17 605.981C173.623 601.505 177.296 597.122 181.028 592.939C181.764 592.115 183.028 592.043 183.852 592.778ZM568.133 707.494C569.107 706.972 570.319 707.339 570.84 708.312C573.622 713.506 576.042 718.6 577.686 723.544C578.035 724.592 577.468 725.724 576.42 726.073C575.372 726.421 574.239 725.854 573.891 724.806C572.35 720.173 570.049 715.307 567.314 710.201C566.793 709.227 567.159 708.015 568.133 707.494ZM163.165 619.298C164.103 619.881 164.391 621.114 163.807 622.052C160.708 627.038 158.113 631.958 156.229 636.663C155.818 637.689 154.654 638.187 153.628 637.776C152.603 637.366 152.105 636.201 152.515 635.176C154.509 630.199 157.223 625.068 160.41 619.94C160.993 619.002 162.227 618.714 163.165 619.298ZM577.948 738.294C579.037 738.479 579.77 739.511 579.585 740.6C579.099 743.467 578.121 746.249 576.566 748.928C575.352 751.02 574.15 752.997 572.942 754.864C572.342 755.792 571.104 756.057 570.177 755.457C569.249 754.857 568.984 753.619 569.584 752.692C570.75 750.889 571.918 748.968 573.106 746.921C574.417 744.662 575.234 742.335 575.642 739.931C575.826 738.842 576.859 738.109 577.948 738.294ZM270.254 671.384C269.974 672.453 268.881 673.093 267.813 672.813C262.796 671.501 258.707 671.073 254.993 671.176C253.889 671.207 252.969 670.337 252.938 669.233C252.907 668.128 253.777 667.208 254.882 667.178C259.014 667.062 263.482 667.546 268.825 668.943C269.893 669.223 270.533 670.316 270.254 671.384ZM279.276 674.561C279.701 673.541 280.873 673.06 281.892 673.486C285.632 675.048 289.75 676.948 294.333 679.239C295.321 679.733 295.722 680.934 295.228 681.922C294.734 682.91 293.533 683.311 292.545 682.817C288.026 680.558 283.991 678.697 280.351 677.177C279.331 676.751 278.85 675.58 279.276 674.561ZM303.698 686.383C304.228 685.415 305.444 685.06 306.413 685.591C308.338 686.646 310.332 687.757 312.399 688.926C314.6 690.17 316.687 691.414 318.669 692.656C319.605 693.242 319.889 694.476 319.302 695.412C318.715 696.348 317.481 696.632 316.545 696.045C314.616 694.836 312.581 693.623 310.43 692.408C308.377 691.247 306.399 690.145 304.49 689.098C303.521 688.567 303.167 687.352 303.698 686.383ZM243.528 670.894C243.801 671.965 243.154 673.053 242.084 673.326C241.338 673.516 240.576 673.714 239.795 673.916C236.537 674.762 232.946 675.693 228.796 676.506C227.712 676.719 226.661 676.012 226.449 674.928C226.236 673.844 226.943 672.793 228.027 672.581C232.047 671.793 235.498 670.898 238.748 670.055L238.78 670.047C239.562 669.844 240.333 669.644 241.097 669.45C242.167 669.177 243.256 669.824 243.528 670.894ZM150.829 650.249C151.933 650.222 152.85 651.095 152.876 652.2C153.005 657.507 154.848 662.035 158.922 665.586C159.755 666.311 159.841 667.575 159.116 668.407C158.39 669.24 157.127 669.327 156.294 668.601C151.269 664.222 149.03 658.58 148.878 652.297C148.851 651.192 149.724 650.275 150.829 650.249ZM564.305 763.17C565.106 763.931 565.138 765.197 564.376 765.997C561.007 769.541 557.353 772.437 553.141 774.762C552.174 775.296 550.958 774.945 550.424 773.978C549.89 773.011 550.241 771.795 551.208 771.261C555.03 769.15 558.364 766.516 561.478 763.241C562.239 762.44 563.505 762.409 564.305 763.17ZM327.762 701.354C328.45 700.489 329.708 700.346 330.572 701.034C334.765 704.369 338.317 707.679 341.391 710.946C342.148 711.75 342.11 713.016 341.305 713.773C340.501 714.53 339.235 714.491 338.478 713.687C335.535 710.56 332.126 707.38 328.082 704.164C327.218 703.476 327.075 702.218 327.762 701.354ZM216.967 676.207C217.052 677.309 216.228 678.271 215.127 678.356C211.048 678.671 206.507 678.826 201.385 678.748C200.28 678.732 199.399 677.823 199.415 676.718C199.432 675.614 200.341 674.732 201.446 674.749C206.45 674.825 210.867 674.673 214.818 674.368C215.92 674.282 216.881 675.106 216.967 676.207ZM189.84 676.227C189.75 677.328 188.784 678.147 187.683 678.057C185.498 677.877 183.227 677.66 180.865 677.403C177.75 677.065 174.889 676.591 172.269 675.988C171.193 675.741 170.521 674.667 170.769 673.591C171.016 672.514 172.089 671.842 173.166 672.09C175.613 672.653 178.318 673.103 181.297 673.427C183.626 673.68 185.862 673.893 188.011 674.07C189.112 674.161 189.931 675.127 189.84 676.227ZM347.788 721.827C348.696 721.198 349.942 721.424 350.571 722.332C353.494 726.554 355.9 730.649 358.174 734.519L358.237 734.626C358.797 735.578 358.478 736.804 357.526 737.363C356.574 737.923 355.348 737.605 354.788 736.652L354.753 736.592C352.463 732.695 350.121 728.708 347.282 724.61C346.653 723.702 346.88 722.456 347.788 721.827ZM541.352 777.378C541.616 778.45 540.961 779.534 539.889 779.798C535.766 780.814 531.203 781.546 526.089 782.047C524.99 782.155 524.011 781.351 523.903 780.252C523.796 779.153 524.599 778.174 525.699 778.066C530.671 777.579 535.037 776.874 538.932 775.914C540.004 775.65 541.088 776.305 541.352 777.378ZM514.237 780.793C514.265 781.898 513.393 782.816 512.288 782.844C508.033 782.953 503.455 782.969 498.514 782.91C497.41 782.897 496.525 781.991 496.538 780.886C496.552 779.782 497.458 778.897 498.562 778.91C503.466 778.969 507.992 778.952 512.186 778.845C513.29 778.817 514.208 779.689 514.237 780.793ZM363.016 746.133C363.904 745.476 365.156 745.665 365.813 746.553C368.455 750.131 371.47 753.464 375.335 756.537C376.2 757.224 376.343 758.482 375.656 759.347C374.969 760.211 373.711 760.355 372.846 759.668C368.656 756.337 365.405 752.733 362.595 748.93C361.939 748.041 362.127 746.789 363.016 746.133ZM486.834 780.657C486.798 781.761 485.874 782.627 484.77 782.592C482.542 782.52 480.25 782.438 477.893 782.347C475.388 782.25 472.94 782.145 470.548 782.03C469.444 781.977 468.593 781.04 468.646 779.936C468.699 778.833 469.636 777.982 470.74 778.034C473.119 778.149 475.554 778.254 478.047 778.35C480.397 778.441 482.68 778.522 484.899 778.594C486.003 778.629 486.869 779.553 486.834 780.657ZM458.321 779.332C458.244 780.434 457.287 781.264 456.186 781.187C451.139 780.832 446.376 780.429 441.878 779.98C440.779 779.871 439.977 778.891 440.086 777.792C440.196 776.693 441.176 775.89 442.275 776C446.731 776.445 451.455 776.844 456.466 777.197C457.568 777.274 458.399 778.23 458.321 779.332ZM429.805 776.573C429.651 777.667 428.64 778.428 427.546 778.275C422.386 777.549 417.644 776.747 413.275 775.87C412.192 775.653 411.491 774.599 411.708 773.516C411.925 772.433 412.979 771.731 414.062 771.948C418.345 772.808 423.011 773.598 428.103 774.314C429.197 774.467 429.959 775.479 429.805 776.573ZM384.522 764.695C384.987 763.693 386.177 763.259 387.178 763.724C390.93 765.468 395.251 767.094 400.288 768.586C401.347 768.9 401.951 770.013 401.638 771.072C401.324 772.131 400.211 772.735 399.152 772.421C393.955 770.882 389.446 769.189 385.492 767.351C384.491 766.886 384.056 765.696 384.522 764.695ZM905.895 94.8264C905.552 93.7765 904.422 93.2039 903.372 93.5473C898.587 95.1127 894.169 97.1659 890.129 99.5983C889.183 100.168 888.877 101.397 889.447 102.343C890.017 103.29 891.246 103.595 892.192 103.025C895.979 100.745 900.123 98.8189 904.616 97.3491C905.666 97.0056 906.238 95.8762 905.895 94.8264ZM915.817 92.7366C915.931 93.8352 916.915 94.633 918.013 94.5185C922.353 94.0663 926.943 94.0077 931.778 94.4084C932.879 94.4996 933.845 93.6812 933.937 92.5804C934.028 91.4796 933.209 90.5133 932.109 90.422C927.033 90.0014 922.194 90.0613 917.599 90.5401C916.5 90.6546 915.702 91.638 915.817 92.7366ZM881.398 108.535C880.63 107.741 879.364 107.72 878.57 108.488C874.984 111.954 871.886 115.746 869.291 119.713C868.687 120.637 868.946 121.877 869.87 122.481C870.794 123.086 872.034 122.827 872.639 121.903C875.075 118.178 877.984 114.618 881.35 111.363C882.144 110.596 882.165 109.33 881.398 108.535ZM943.884 94.2234C943.624 95.297 944.284 96.378 945.357 96.638C949.633 97.6735 954.069 99.0504 958.661 100.805C959.693 101.199 960.849 100.682 961.243 99.6501C961.637 98.6182 961.12 97.4622 960.088 97.068C955.346 95.2564 950.748 93.8279 946.299 92.7504C945.225 92.4904 944.144 93.1499 943.884 94.2234ZM865.311 131.549C864.273 131.172 863.125 131.709 862.749 132.747C861.009 137.548 859.948 142.39 859.605 147.046C859.523 148.148 860.351 149.107 861.452 149.188C862.554 149.269 863.513 148.442 863.594 147.341C863.908 143.078 864.884 138.596 866.51 134.111C866.886 133.072 866.349 131.925 865.311 131.549ZM970.439 103.74C969.941 104.726 970.338 105.929 971.324 106.426C973.381 107.464 975.465 108.575 977.577 109.761C980.037 111.143 982.441 112.463 984.792 113.723C985.765 114.245 986.977 113.879 987.499 112.906C988.021 111.932 987.655 110.72 986.682 110.198C984.355 108.951 981.974 107.643 979.536 106.273C977.374 105.059 975.237 103.92 973.125 102.855C972.139 102.358 970.936 102.754 970.439 103.74ZM998.425 118.451C997.95 119.448 998.374 120.641 999.371 121.116C1004.66 123.631 1009.64 125.808 1014.34 127.683C1015.36 128.092 1016.53 127.592 1016.94 126.566C1017.35 125.54 1016.85 124.377 1015.82 123.967C1011.2 122.127 1006.3 119.985 1001.09 117.504C1000.09 117.029 998.899 117.453 998.425 118.451ZM862.505 159.279C861.458 159.632 860.895 160.766 861.248 161.813C862.918 166.776 865.806 171.067 869.998 174.143C870.888 174.797 872.14 174.605 872.793 173.714C873.447 172.824 873.255 171.572 872.364 170.919C868.925 168.395 866.484 164.83 865.039 160.537C864.686 159.49 863.552 158.927 862.505 159.279ZM1028.49 130.615C1028.17 131.674 1028.78 132.787 1029.84 133.101C1035.64 134.818 1040.95 136.013 1045.88 136.786C1046.97 136.957 1047.99 136.211 1048.16 135.12C1048.33 134.029 1047.59 133.005 1046.5 132.834C1041.76 132.091 1036.62 130.937 1030.97 129.265C1029.91 128.952 1028.8 129.556 1028.49 130.615ZM882.371 176.903C882.294 178.005 883.124 178.961 884.226 179.038C886.566 179.202 889.06 179.142 891.709 178.843C894.413 178.538 897.076 178.264 899.698 178.02C900.798 177.918 901.606 176.944 901.504 175.844C901.402 174.744 900.427 173.935 899.328 174.037C896.679 174.284 893.99 174.56 891.261 174.868C888.83 175.143 886.58 175.193 884.505 175.048C883.404 174.971 882.448 175.801 882.371 176.903ZM913.461 174.988C913.515 176.092 914.452 176.943 915.556 176.889C921.075 176.622 926.387 176.503 931.495 176.527C932.6 176.532 933.5 175.641 933.505 174.537C933.51 173.432 932.619 172.532 931.514 172.527C926.331 172.503 920.948 172.623 915.362 172.894C914.258 172.947 913.407 173.885 913.461 174.988ZM1060.37 135.96C1060.4 137.064 1061.32 137.933 1062.42 137.901C1068.51 137.723 1073.9 136.874 1078.87 135.718C1079.95 135.468 1080.62 134.393 1080.37 133.317C1080.12 132.241 1079.04 131.572 1077.97 131.822C1073.21 132.93 1068.08 133.733 1062.31 133.902C1061.2 133.935 1060.33 134.856 1060.37 135.96ZM1094.59 131.122C1099.75 129.487 1104.7 128.02 1110.01 127.244C1111.1 127.083 1111.86 126.068 1111.7 124.975C1111.54 123.882 1110.52 123.126 1109.43 123.286C1103.78 124.113 1098.57 125.668 1093.39 127.308C1092.33 127.642 1091.75 128.766 1092.08 129.819C1092.42 130.872 1093.54 131.455 1094.59 131.122ZM1123.9 124.97C1123.75 126.063 1124.5 127.078 1125.6 127.236C1128.04 127.59 1130.6 128.121 1133.32 128.863C1135.77 129.533 1138 130.232 1140 130.953C1141.04 131.326 1142.19 130.786 1142.56 129.746C1142.94 128.706 1142.4 127.561 1141.36 127.188C1139.24 126.428 1136.91 125.699 1134.37 125.004C1131.5 124.221 1128.78 123.656 1126.17 123.278C1125.08 123.119 1124.06 123.877 1123.9 124.97ZM945.513 174.966C945.436 176.068 946.266 177.023 947.368 177.101C952.9 177.488 958.144 178.066 963.103 178.826C964.195 178.993 965.216 178.244 965.383 177.152C965.55 176.06 964.801 175.039 963.709 174.872C958.633 174.095 953.28 173.505 947.648 173.11C946.546 173.033 945.59 173.864 945.513 174.966ZM977.16 179.566C976.877 180.634 977.513 181.729 978.58 182.012C983.984 183.444 988.946 185.139 993.475 187.075C994.491 187.509 995.666 187.037 996.1 186.022C996.534 185.006 996.063 183.831 995.047 183.397C990.324 181.378 985.177 179.623 979.605 178.145C978.538 177.862 977.443 178.498 977.16 179.566ZM1151.76 134.444C1151.05 135.289 1151.16 136.551 1152 137.262C1154.2 139.11 1155.41 140.927 1155.98 142.629C1156.54 144.321 1156.52 146.042 1156.03 147.793C1155.73 148.856 1156.34 149.961 1157.41 150.261C1158.47 150.561 1159.58 149.943 1159.87 148.879C1160.56 146.465 1160.62 143.917 1159.77 141.364C1158.92 138.82 1157.21 136.417 1154.58 134.2C1153.73 133.489 1152.47 133.598 1151.76 134.444ZM785.22 248.724C789.228 247.167 793.422 245.765 797.628 244.667C798.697 244.388 799.337 243.295 799.058 242.226C798.779 241.157 797.687 240.517 796.618 240.796C792.24 241.939 787.898 243.392 783.771 244.995C782.742 245.395 782.231 246.554 782.631 247.584C783.031 248.613 784.19 249.124 785.22 248.724ZM808.204 240.579C808.291 241.68 809.254 242.502 810.355 242.415C814.89 242.056 819.144 242.279 822.904 243.245C823.974 243.519 825.064 242.875 825.339 241.805C825.614 240.735 824.969 239.645 823.9 239.37C819.596 238.265 814.878 238.045 810.04 238.428C808.938 238.515 808.116 239.478 808.204 240.579ZM774.143 251.361C773.647 250.374 772.445 249.977 771.458 250.473C769.315 251.552 767.318 252.627 765.509 253.663C765.464 253.688 765.42 253.716 765.378 253.745C763.322 255.143 760.933 256.928 758.369 259.039C757.516 259.741 757.394 261.001 758.096 261.854C758.798 262.707 760.059 262.829 760.911 262.127C763.365 260.107 765.633 258.412 767.564 257.095C769.29 256.108 771.201 255.08 773.256 254.046C774.243 253.55 774.64 252.347 774.143 251.361ZM1006.64 191.724C1006.01 192.634 1006.24 193.88 1007.15 194.505C1011.66 197.606 1015.49 201.053 1018.66 204.805C1019.38 205.648 1020.64 205.753 1021.48 205.04C1022.33 204.327 1022.43 203.065 1021.72 202.222C1018.3 198.178 1014.2 194.496 1009.42 191.21C1008.51 190.584 1007.26 190.814 1006.64 191.724ZM1151.09 158.409C1150.38 157.561 1149.12 157.448 1148.28 158.157C1146.48 159.661 1144.55 161.005 1142.7 162.126C1142.43 162.287 1142.21 162.508 1142.04 162.771C1140.55 165.137 1139.14 167.499 1137.81 169.855C1137.27 170.817 1137.61 172.037 1138.57 172.579C1139.53 173.121 1140.75 172.781 1141.3 171.818C1142.52 169.652 1143.81 167.479 1145.18 165.3C1147.06 164.135 1149 162.761 1150.84 161.226C1151.69 160.517 1151.8 159.256 1151.09 158.409ZM833.359 246.437C832.532 247.169 832.455 248.433 833.187 249.26C834.443 250.678 835.541 252.359 836.442 254.342C837.42 256.494 838.865 258.758 840.683 261.087C841.363 261.957 842.62 262.112 843.49 261.432C844.361 260.753 844.516 259.496 843.836 258.625C842.147 256.462 840.893 254.469 840.084 252.687C839.026 250.36 837.715 248.34 836.182 246.608C835.45 245.781 834.186 245.704 833.359 246.437ZM748.51 270.96C747.694 270.215 746.429 270.273 745.685 271.089C741.855 275.288 738.138 279.979 734.98 285.01C734.393 285.946 734.675 287.18 735.611 287.767C736.546 288.354 737.781 288.072 738.368 287.136C741.374 282.348 744.936 277.845 748.64 273.785C749.384 272.969 749.326 271.704 748.51 270.96ZM1133.11 183.592C1132.1 183.157 1130.92 183.626 1130.48 184.641C1128.24 189.863 1126.38 195.035 1124.86 200.14C1124.54 201.198 1125.14 202.312 1126.2 202.627C1127.26 202.943 1128.38 202.34 1128.69 201.282C1130.17 196.325 1131.98 191.299 1134.16 186.219C1134.59 185.204 1134.12 184.028 1133.11 183.592ZM1027.73 215.29C1026.71 215.709 1026.22 216.877 1026.64 217.899C1028.55 222.561 1029.75 227.554 1030.25 232.842C1030.35 233.942 1031.32 234.75 1032.42 234.647C1033.52 234.544 1034.33 233.57 1034.23 232.47C1033.7 226.813 1032.41 221.432 1030.34 216.382C1029.92 215.36 1028.75 214.871 1027.73 215.29ZM730.055 299.748C728.992 299.447 727.886 300.065 727.586 301.128C726.763 304.031 726.213 306.995 726.005 309.996C725.751 313.639 726.384 316.73 727.839 319.347C728.375 320.313 729.593 320.66 730.558 320.124C731.524 319.587 731.871 318.37 731.335 317.404C730.317 315.572 729.786 313.277 729.995 310.273C730.182 307.576 730.679 304.885 731.434 302.217C731.735 301.155 731.117 300.049 730.055 299.748ZM851.216 269.292C850.489 270.124 850.574 271.387 851.406 272.114C854.942 275.204 858.961 278.356 863.366 281.487C864.267 282.127 865.515 281.915 866.155 281.015C866.795 280.115 866.584 278.866 865.683 278.226C861.372 275.163 857.46 272.093 854.038 269.102C853.206 268.375 851.943 268.46 851.216 269.292ZM1123.41 214.597C1122.32 214.413 1121.29 215.147 1121.11 216.236C1120.16 221.833 1119.6 227.317 1119.37 232.664C1119.33 233.767 1120.18 234.7 1121.29 234.748C1122.39 234.795 1123.32 233.939 1123.37 232.835C1123.59 227.65 1124.13 222.331 1125.05 216.903C1125.24 215.814 1124.5 214.781 1123.41 214.597ZM875.402 287.054C874.832 288 875.136 289.23 876.082 289.8C880.3 292.342 884.735 294.821 889.333 297.186C890.315 297.692 891.521 297.305 892.026 296.323C892.531 295.341 892.145 294.135 891.163 293.63C886.645 291.305 882.288 288.87 878.147 286.374C877.201 285.804 875.972 286.108 875.402 287.054ZM1032.05 246.661C1030.95 246.506 1029.94 247.267 1029.79 248.36C1029.09 253.254 1027.9 258.333 1026.2 263.573C1025.86 264.624 1026.44 265.751 1027.49 266.092C1028.54 266.432 1029.67 265.856 1030.01 264.806C1031.77 259.37 1033.02 254.066 1033.75 248.921C1033.9 247.828 1033.14 246.816 1032.05 246.661ZM741.589 326.798C741.256 327.851 741.84 328.975 742.893 329.308C746.497 330.447 750.545 331.419 754.718 332.422L754.718 332.422L754.719 332.422C756.296 332.801 757.89 333.184 759.485 333.582C760.556 333.849 761.642 333.197 761.909 332.125C762.177 331.054 761.525 329.968 760.453 329.701C758.768 329.28 757.12 328.884 755.514 328.498L755.513 328.498C751.397 327.509 747.559 326.587 744.099 325.494C743.045 325.161 741.922 325.745 741.589 326.798ZM901.999 301.043C901.561 302.056 902.027 303.234 903.041 303.672C907.667 305.673 912.394 307.529 917.175 309.197C918.218 309.561 919.358 309.011 919.722 307.968C920.086 306.925 919.536 305.785 918.493 305.421C913.808 303.786 909.171 301.965 904.629 300.001C903.615 299.562 902.438 300.029 901.999 301.043ZM774.33 335.937C773.912 336.959 774.402 338.127 775.425 338.545C780.483 340.614 785.274 343.245 789.472 346.805C790.314 347.52 791.577 347.416 792.291 346.573C793.005 345.731 792.902 344.469 792.059 343.755C787.458 339.851 782.272 337.023 776.939 334.843C775.916 334.425 774.749 334.915 774.33 335.937ZM1121.52 247.024C1120.42 247.114 1119.6 248.079 1119.69 249.179C1120.15 254.852 1120.96 260.314 1122.03 265.529C1122.25 266.611 1123.3 267.309 1124.39 267.087C1125.47 266.865 1126.17 265.808 1125.94 264.726C1124.91 259.662 1124.12 254.36 1123.68 248.856C1123.59 247.755 1122.62 246.935 1121.52 247.024ZM1023 277.265C1022 276.792 1020.81 277.218 1020.34 278.216C1019.23 280.547 1018.04 282.902 1016.76 285.278C1015.57 287.484 1014.29 289.542 1012.92 291.457C1012.28 292.357 1012.49 293.606 1013.39 294.246C1014.29 294.887 1015.54 294.676 1016.18 293.776C1017.64 291.723 1019.01 289.525 1020.28 287.178C1021.59 284.742 1022.82 282.325 1023.95 279.928C1024.43 278.93 1024 277.737 1023 277.265ZM930.277 311.182C930.002 312.251 930.646 313.342 931.715 313.617C936.695 314.9 941.685 315.939 946.633 316.686C947.726 316.851 948.745 316.099 948.91 315.007C949.074 313.915 948.323 312.896 947.23 312.731C942.43 312.006 937.574 310.996 932.713 309.744C931.643 309.468 930.553 310.112 930.277 311.182ZM1005.83 302.277C1005.14 301.412 1003.88 301.267 1003.02 301.954C999.208 304.979 995.036 307.376 990.57 309.211C989.549 309.63 989.061 310.799 989.481 311.821C989.9 312.842 991.069 313.33 992.091 312.91C996.882 310.942 1001.38 308.36 1005.51 305.087C1006.37 304.4 1006.52 303.142 1005.83 302.277ZM800.287 356.779C799.3 357.275 798.901 358.477 799.397 359.464C800.549 361.758 801.559 364.277 802.4 367.048C803.18 369.621 803.722 372.181 804.052 374.727C804.194 375.822 805.198 376.595 806.293 376.453C807.388 376.311 808.161 375.307 808.019 374.212C807.66 371.451 807.073 368.675 806.228 365.887C805.324 362.907 804.231 360.176 802.972 357.669C802.476 356.682 801.274 356.283 800.287 356.779ZM959.891 315.978C959.871 317.082 960.75 317.994 961.854 318.014C967.093 318.11 972.225 317.799 977.18 317.014C978.271 316.842 979.016 315.817 978.843 314.726C978.67 313.635 977.646 312.891 976.555 313.064C971.858 313.807 966.962 314.107 961.928 314.015C960.823 313.994 959.912 314.873 959.891 315.978ZM1127.56 278.937C1126.51 279.285 1125.94 280.417 1126.29 281.465C1128.13 287.002 1130.22 292.137 1132.43 296.808C1132.9 297.807 1134.09 298.234 1135.09 297.762C1136.09 297.29 1136.52 296.098 1136.04 295.1C1133.9 290.569 1131.87 285.583 1130.09 280.204C1129.74 279.156 1128.61 278.588 1127.56 278.937ZM805.935 388.795C804.847 388.607 803.812 389.338 803.625 390.427C802.739 395.575 801.191 400.68 799.203 405.735C798.799 406.763 799.304 407.924 800.332 408.328C801.36 408.732 802.521 408.227 802.925 407.199C804.988 401.954 806.625 396.582 807.567 391.105C807.754 390.016 807.024 388.982 805.935 388.795ZM1141.05 308.505C1140.13 309.11 1139.87 310.35 1140.47 311.274C1142.13 313.801 1143.76 316.056 1145.33 318.015C1145.39 318.092 1145.46 318.164 1145.53 318.231C1147.48 320.047 1149.5 321.98 1151.55 324.01C1152.33 324.788 1153.6 324.782 1154.38 323.998C1155.15 323.213 1155.15 321.947 1154.36 321.169C1152.32 319.147 1150.31 317.218 1148.36 315.403C1146.91 313.576 1145.38 311.463 1143.82 309.083C1143.22 308.159 1141.98 307.9 1141.05 308.505ZM795.063 419.519C794.087 419.001 792.876 419.373 792.358 420.348C789.803 425.164 787.062 429.89 784.35 434.539C783.793 435.493 784.115 436.717 785.069 437.274C786.023 437.831 787.248 437.509 787.805 436.554C790.516 431.909 793.294 427.119 795.892 422.223C796.41 421.248 796.038 420.037 795.063 419.519ZM1163.2 333.296C1162.38 334.031 1162.31 335.295 1163.04 336.119C1166.72 340.24 1170.33 344.55 1173.72 348.942C1174.39 349.816 1175.65 349.978 1176.52 349.304C1177.4 348.629 1177.56 347.373 1176.89 346.499C1173.43 342.023 1169.76 337.639 1166.03 333.456C1165.29 332.632 1164.03 332.56 1163.2 333.296ZM778.923 448.011C777.949 447.489 776.737 447.856 776.216 448.83C773.434 454.023 771.014 459.117 769.37 464.061C769.021 465.109 769.588 466.241 770.636 466.59C771.685 466.938 772.817 466.371 773.165 465.323C774.706 460.69 777.007 455.825 779.742 450.718C780.263 449.744 779.897 448.532 778.923 448.011ZM1183.89 359.815C1182.95 360.398 1182.67 361.631 1183.25 362.569C1186.35 367.555 1188.94 372.475 1190.83 377.18C1191.24 378.206 1192.4 378.704 1193.43 378.293C1194.45 377.883 1194.95 376.719 1194.54 375.693C1192.55 370.716 1189.83 365.585 1186.65 360.457C1186.06 359.519 1184.83 359.232 1183.89 359.815ZM769.108 478.811C768.019 478.996 767.286 480.028 767.471 481.117C767.957 483.984 768.935 486.766 770.49 489.445C771.704 491.537 772.906 493.514 774.114 495.381C774.714 496.309 775.952 496.574 776.879 495.974C777.807 495.374 778.072 494.136 777.473 493.209C776.306 491.406 775.138 489.485 773.95 487.438C772.639 485.179 771.822 482.852 771.415 480.448C771.23 479.359 770.197 478.626 769.108 478.811ZM1076.8 411.901C1077.08 412.97 1078.17 413.61 1079.24 413.33C1084.26 412.018 1088.35 411.59 1092.06 411.693C1093.17 411.724 1094.09 410.854 1094.12 409.75C1094.15 408.646 1093.28 407.725 1092.17 407.695C1088.04 407.58 1083.57 408.063 1078.23 409.46C1077.16 409.74 1076.52 410.833 1076.8 411.901ZM1067.78 415.078C1067.35 414.058 1066.18 413.577 1065.16 414.003C1061.42 415.565 1057.31 417.465 1052.72 419.756C1051.74 420.25 1051.33 421.451 1051.83 422.439C1052.32 423.427 1053.52 423.828 1054.51 423.334C1059.03 421.075 1063.06 419.214 1066.71 417.694C1067.72 417.268 1068.21 416.097 1067.78 415.078ZM1043.36 426.9C1042.83 425.932 1041.61 425.577 1040.64 426.108C1038.72 427.163 1036.72 428.274 1034.66 429.443C1032.46 430.687 1030.37 431.931 1028.39 433.173C1027.45 433.759 1027.17 434.994 1027.75 435.929C1028.34 436.865 1029.57 437.149 1030.51 436.562C1032.44 435.353 1034.48 434.14 1036.63 432.925C1038.68 431.764 1040.66 430.662 1042.57 429.615C1043.53 429.084 1043.89 427.869 1043.36 426.9ZM1103.53 411.411C1103.26 412.482 1103.9 413.571 1104.97 413.843L1105.32 413.932L1105.77 414.047C1105.98 414.102 1106.19 414.157 1106.41 414.212L1107.26 414.433C1110.52 415.279 1114.11 416.21 1118.26 417.023C1119.34 417.236 1120.4 416.529 1120.61 415.445C1120.82 414.361 1120.11 413.31 1119.03 413.098C1118.28 412.951 1117.54 412.799 1116.83 412.646L1119.15 403.684L1138.35 408.65L1137.38 401.083L1141.9 394.935L1122.69 389.969L1123.4 387.226L1120.66 386.517L1114.07 412.02C1112.04 411.54 1110.14 411.048 1108.31 410.573L1108.31 410.572L1108.28 410.565C1107.5 410.362 1106.73 410.162 1105.96 409.967C1104.89 409.694 1103.8 410.341 1103.53 411.411ZM1196.23 390.766C1195.12 390.739 1194.21 391.613 1194.18 392.717C1194.05 398.024 1192.21 402.552 1188.13 406.103C1187.3 406.828 1187.21 408.092 1187.94 408.924C1188.67 409.757 1189.93 409.844 1190.76 409.118C1195.79 404.739 1198.03 399.097 1198.18 392.814C1198.21 391.709 1197.33 390.793 1196.23 390.766ZM782.751 503.687C781.95 504.448 781.919 505.714 782.68 506.514C786.049 510.058 789.703 512.954 793.915 515.279C794.882 515.813 796.098 515.462 796.632 514.495C797.166 513.529 796.815 512.312 795.848 511.778C792.026 509.667 788.692 507.033 785.578 503.758C784.817 502.957 783.551 502.926 782.751 503.687ZM1019.29 441.871C1018.61 441.006 1017.35 440.863 1016.48 441.551C1012.29 444.886 1008.74 448.196 1005.66 451.463C1004.91 452.267 1004.95 453.533 1005.75 454.29C1006.56 455.047 1007.82 455.009 1008.58 454.204C1011.52 451.077 1014.93 447.898 1018.97 444.681C1019.84 443.993 1019.98 442.735 1019.29 441.871ZM1130.09 416.725C1130 417.826 1130.83 418.788 1131.93 418.873C1136.01 419.188 1140.55 419.344 1145.67 419.265C1146.78 419.249 1147.66 418.34 1147.64 417.235C1147.62 416.131 1146.71 415.249 1145.61 415.266C1140.61 415.342 1136.19 415.19 1132.24 414.885C1131.14 414.8 1130.17 415.623 1130.09 416.725ZM1157.22 416.744C1157.31 417.845 1158.27 418.664 1159.37 418.574C1161.56 418.394 1163.83 418.177 1166.19 417.92C1169.31 417.582 1172.17 417.108 1174.79 416.505C1175.86 416.258 1176.54 415.184 1176.29 414.108C1176.04 413.031 1174.97 412.359 1173.89 412.607C1171.44 413.17 1168.74 413.62 1165.76 413.944C1163.43 414.197 1161.19 414.411 1159.05 414.587C1157.94 414.678 1157.13 415.644 1157.22 416.744ZM999.268 462.344C998.36 461.715 997.115 461.941 996.486 462.849C993.562 467.071 991.156 471.166 988.882 475.036L988.819 475.143C988.259 476.095 988.578 477.321 989.53 477.881C990.483 478.44 991.708 478.122 992.268 477.169L992.303 477.109C994.593 473.212 996.935 469.226 999.774 465.127C1000.4 464.219 1000.18 462.973 999.268 462.344ZM805.704 517.895C805.44 518.967 806.095 520.051 807.168 520.315C811.29 521.331 815.853 522.063 820.967 522.564C822.067 522.672 823.045 521.868 823.153 520.769C823.261 519.67 822.457 518.691 821.357 518.583C816.385 518.096 812.019 517.391 808.124 516.431C807.052 516.167 805.968 516.822 805.704 517.895ZM832.82 521.31C832.791 522.415 833.664 523.333 834.768 523.361C839.023 523.47 843.601 523.487 848.542 523.427C849.646 523.414 850.531 522.508 850.518 521.403C850.504 520.299 849.598 519.414 848.494 519.427C843.591 519.486 839.064 519.469 834.87 519.362C833.766 519.334 832.848 520.206 832.82 521.31ZM984.041 486.65C983.152 485.994 981.9 486.182 981.244 487.07C978.601 490.648 975.587 493.981 971.721 497.054C970.856 497.741 970.713 498.999 971.4 499.864C972.087 500.729 973.345 500.872 974.21 500.185C978.401 496.854 981.651 493.25 984.461 489.447C985.117 488.558 984.929 487.306 984.041 486.65ZM860.222 521.174C860.258 522.278 861.182 523.144 862.286 523.109C864.514 523.037 866.806 522.955 869.164 522.864C871.668 522.768 874.116 522.662 876.508 522.547C877.612 522.494 878.463 521.557 878.41 520.453C878.357 519.35 877.42 518.499 876.317 518.552C873.937 518.666 871.502 518.771 869.009 518.867C866.659 518.958 864.376 519.039 862.157 519.111C861.053 519.146 860.187 520.07 860.222 521.174ZM888.735 519.849C888.813 520.951 889.769 521.782 890.87 521.704C895.917 521.349 900.68 520.946 905.178 520.497C906.277 520.388 907.079 519.408 906.97 518.309C906.86 517.21 905.88 516.407 904.781 516.517C900.325 516.962 895.601 517.361 890.59 517.714C889.488 517.791 888.658 518.747 888.735 519.849ZM917.251 517.09C917.405 518.184 918.416 518.946 919.51 518.792C924.67 518.066 929.412 517.264 933.781 516.387C934.864 516.17 935.566 515.116 935.348 514.033C935.131 512.95 934.077 512.248 932.994 512.466C928.711 513.325 924.045 514.115 918.953 514.831C917.859 514.985 917.097 515.996 917.251 517.09ZM962.534 505.212C962.069 504.21 960.88 503.776 959.878 504.241C956.127 505.985 951.805 507.611 946.768 509.103C945.709 509.417 945.105 510.53 945.419 511.589C945.732 512.648 946.845 513.252 947.904 512.938C953.101 511.399 957.61 509.706 961.564 507.869C962.565 507.403 963 506.214 962.534 505.212ZM1127.76 401.521C1128.51 401.716 1129.23 401.614 1129.9 401.215C1130.58 400.817 1131.01 400.241 1131.21 399.487C1131.4 398.733 1131.3 398.017 1130.9 397.341C1130.5 396.664 1129.93 396.229 1129.17 396.035C1128.42 395.839 1127.7 395.941 1127.03 396.34C1126.35 396.738 1125.92 397.315 1125.72 398.068C1125.53 398.823 1125.63 399.538 1126.03 400.215C1126.43 400.891 1127 401.327 1127.76 401.521ZM0.54541 433.818H12.8181V470.636H18.9545V476.773H25.0909V446.091H37.3636V476.773H43.5V470.636H49.6363V433.818H61.909V476.773H55.7727V489.045H49.6363V495.182H37.3636V489.045H25.0909V495.182H12.8181V489.045H6.68177V476.773H0.54541V433.818ZM74.1818 458.364V470.636H80.3181V476.773H86.4545V482.909H92.5909V489.045H98.7272V495.182H111V482.909H104.864V476.773H98.7272V470.636H92.5909V458.364H98.7272V452.227H104.864V446.091H111V433.818H98.7272V439.955H92.5909V446.091H86.4545V452.227H80.3181V458.364H74.1818ZM702.636 877.818H690.364V871.682H684.227V865.545H678.091V859.409H671.954V853.273H665.818V841H678.091V847.136H684.227V853.273H690.364V859.409H702.636V853.273H708.773V847.136H714.909V841H727.182V853.273H721.045V859.409H714.909V865.545H708.773V871.682H702.636V877.818ZM714.909 890.091H684.227V896.227H678.091V920.773H684.227V926.909H702.636V939.182H678.091V951.454H708.773V945.318H714.909V920.773H708.773V914.636H690.364V902.364H714.909V890.091ZM1317.82 458.364V470.636H1311.68V476.773H1305.55V482.909H1299.41V489.045H1293.27V495.182H1281V482.909H1287.14V476.773H1293.27V470.636H1299.41V458.364H1293.27V452.227H1287.14V446.091H1281V433.818H1293.27V439.955H1299.41V446.091H1305.55V452.227H1311.68V458.364H1317.82ZM1342.36 433.818H1379.18V446.091H1354.64V458.364H1379.18V470.636H1354.64V482.909H1379.18V495.182H1342.36V433.818ZM672.364 51.5454H660.091V112.909H672.364V88.3635H678.5V100.636H684.636V112.909H696.909V51.5454H684.636V76.0908H678.5V60.7499H672.364V51.5454ZM672.364 125.182V131.318H666.227V137.454H660.091V143.591H653.954V149.727H647.818V162H660.091V155.864H666.227V149.727H672.364V143.591H684.636V149.727H690.773V155.864H696.909V162H709.182V149.727H703.045V143.591H696.909V137.454H690.773V131.318H684.636V125.182H672.364ZM192.286 339.173C193.813 339.885 195.561 339.962 197.145 339.385C197.929 339.1 198.649 338.663 199.264 338.099C199.879 337.535 200.378 336.856 200.73 336.1C201.083 335.343 201.283 334.525 201.319 333.691C201.356 332.858 201.228 332.025 200.942 331.241C200.366 329.657 199.184 328.368 197.657 327.655C196.129 326.943 194.382 326.867 192.798 327.443C191.215 328.02 189.925 329.201 189.213 330.729C188.5 332.256 188.424 334.004 189 335.587C189.577 337.171 190.759 338.461 192.286 339.173ZM178.847 325.895C180.841 321.619 184.452 318.309 188.886 316.695C193.32 315.082 198.214 315.295 202.49 317.289C206.767 319.284 210.076 322.895 211.69 327.329C216.254 339.868 206.272 364.463 206.272 364.463C206.272 364.463 182.816 352.038 178.253 339.499C176.639 335.065 176.852 330.172 178.847 325.895ZM214.5 403C223.06 403 230 396.06 230 387.5C230 378.94 223.06 372 214.5 372C205.94 372 199 378.94 199 387.5C199 396.06 205.94 403 214.5 403ZM1230.74 788.914C1240.34 758.457 1223.37 725.865 1192.92 716.262C1162.46 706.659 1129.87 723.625 1120.26 754.082C1110.66 784.539 1127.63 817.131 1158.08 826.734C1188.54 836.337 1221.13 819.371 1230.74 788.914ZM1131.31 757.565C1138.99 733.201 1165.07 719.627 1189.43 727.309C1213.8 734.991 1227.37 761.066 1219.69 785.431C1212.01 809.796 1185.93 823.369 1161.57 815.687C1137.2 808.005 1123.63 781.93 1131.31 757.565ZM1160.37 742.437L1160.98 779.012L1190.63 800.559L1190.03 763.934L1160.37 742.437Z" fill="#FFF8E0"/>
</svg>
