<svg width="375" height="620" viewBox="0 0 375 620" fill="none" xmlns="http://www.w3.org/2000/svg">
<g filter="url(#filter0_d_445_832)">
<path fill-rule="evenodd" clip-rule="evenodd" d="M63.146 0.343748C62.3944 0.122195 61.6023 0.0747147 60.8297 0.204907C60.0571 0.3351 59.3243 0.63955 58.6868 1.09516L25.6169 24.7134L-18.4486 20.8048C-19.6759 20.6973 -20.9011 21.0324 -21.9028 21.7496L-56.5247 46.4782C-57.461 47.1469 -58.1469 48.1093 -58.4734 49.2126C-58.8 50.3158 -58.7484 51.4965 -58.3269 52.5671L-24.2896 138.976C-24.0021 139.705 -23.5522 140.359 -22.9741 140.889C-22.3959 141.418 -21.7047 141.809 -20.9529 142.032C-20.2011 142.254 -19.4085 142.302 -18.6354 142.172C-17.8622 142.043 -17.1287 141.738 -16.4907 141.283L16.5792 117.664L60.6447 121.573C61.4428 121.639 62.2455 121.522 62.9915 121.231C63.3839 121.076 63.7558 120.874 64.0989 120.628L98.7208 95.8996C99.6571 95.2309 100.343 94.2685 100.67 93.1653C100.996 92.062 100.944 90.8813 100.523 89.8108L66.4857 3.40211C66.1982 2.67192 65.748 2.01692 65.1693 1.48694C64.5906 0.956973 63.8986 0.565991 63.146 0.343748ZM13.2419 107.556C12.8495 107.71 12.4776 107.913 12.1345 108.158L-17.1114 129.043L-47.2486 52.5355L-17.4581 31.2558L-16.7913 31.312L13.2419 107.556ZM89.4447 89.8423L59.6542 111.122L58.9874 111.066L28.9542 34.8222C29.3471 34.6694 29.7198 34.4691 30.064 34.2256L59.3075 13.3346L89.4447 89.8423ZM226.426 33.1972C227.103 32.9757 227.831 33.345 228.053 34.0221C228.274 34.6992 227.905 35.4276 227.228 35.6491C224.331 36.597 221.658 37.8393 219.216 39.3097C218.605 39.6772 217.813 39.4803 217.445 38.87C217.078 38.2598 217.275 37.4671 217.885 37.0997C220.49 35.5309 223.34 34.2067 226.426 33.1972ZM235.869 33.8236C235.16 33.8974 234.526 33.3829 234.452 32.6743C234.378 31.9658 234.893 31.3316 235.601 31.2577C238.565 30.9489 241.686 30.9103 244.959 31.1816C245.669 31.2404 246.197 31.8636 246.138 32.5736C246.079 33.2835 245.456 33.8113 244.746 33.7525C241.628 33.4941 238.668 33.5319 235.869 33.8236ZM210.43 42.8328C210.942 42.3376 211.759 42.3514 212.254 42.8636C212.749 43.3757 212.735 44.1923 212.223 44.6875C210.052 46.7862 208.176 49.0825 206.605 51.4846C206.215 52.0807 205.415 52.2479 204.819 51.8579C204.223 51.4679 204.056 50.6685 204.446 50.0723C206.119 47.514 208.117 45.0685 210.43 42.8328ZM253.504 35.1905C252.811 35.0228 252.386 34.3256 252.554 33.6332C252.721 32.9409 253.419 32.5155 254.111 32.6832C256.98 33.3781 259.946 34.2994 263.004 35.4678C263.67 35.722 264.003 36.4676 263.749 37.1331C263.494 37.7985 262.749 38.1319 262.083 37.8777C259.122 36.7463 256.261 35.8583 253.504 35.1905ZM200.227 58.4787C200.469 57.809 201.209 57.4629 201.879 57.7057C202.549 57.9485 202.895 58.6882 202.652 59.358C201.603 62.2506 200.974 65.1415 200.771 67.8905C200.719 68.6009 200.101 69.1344 199.39 69.082C198.68 69.0295 198.146 68.4111 198.199 67.7007C198.42 64.6975 199.104 61.5749 200.227 58.4787ZM270.25 41.5034C269.614 41.1826 269.359 40.4069 269.68 39.7709C270.001 39.1348 270.776 38.8793 271.412 39.2001C272.774 39.887 274.152 40.6213 275.547 41.4047C277.119 42.2881 278.655 43.1313 280.155 43.9357C280.783 44.2724 281.019 45.0542 280.683 45.682C280.346 46.3099 279.564 46.5459 278.936 46.2093C277.42 45.3965 275.87 44.5452 274.283 43.6538C272.921 42.8888 271.577 42.1726 270.25 41.5034ZM288.339 50.9772C287.696 50.6711 287.423 49.9015 287.729 49.2582C288.035 48.615 288.804 48.3416 289.448 48.6478C292.81 50.2479 295.97 51.6295 298.948 52.8163C299.609 53.0801 299.932 53.8303 299.668 54.4921C299.404 55.1538 298.654 55.4764 297.992 55.2126C294.959 54.0034 291.748 52.5992 288.339 50.9772ZM199.258 77.2241C199.031 76.549 199.394 75.8174 200.069 75.5901C200.744 75.3629 201.476 75.726 201.703 76.4011C202.635 79.1702 204.21 81.469 206.428 83.0967C207.002 83.5181 207.126 84.3254 206.705 84.8997C206.283 85.474 205.476 85.598 204.902 85.1765C202.198 83.1925 200.336 80.425 199.258 77.2241ZM307.987 58.7067C307.303 58.5044 306.914 57.7867 307.116 57.1037C307.318 56.4206 308.036 56.0309 308.719 56.2331C312.36 57.3113 315.679 58.0557 318.732 58.5346C319.435 58.6451 319.916 59.3051 319.806 60.0089C319.695 60.7126 319.035 61.1936 318.332 61.0832C315.157 60.5851 311.727 59.8144 307.987 58.7067ZM214.078 88.3333C213.367 88.2835 212.832 87.6671 212.881 86.9565C212.931 86.2458 213.547 85.7101 214.258 85.7598C215.596 85.8535 217.047 85.821 218.615 85.6441C220.375 85.4454 222.109 85.2669 223.817 85.1081C224.527 85.0422 225.155 85.5638 225.221 86.2731C225.287 86.9824 224.765 87.6109 224.056 87.6768C222.365 87.834 220.648 88.0108 218.904 88.2076C217.196 88.4004 215.587 88.4389 214.078 88.3333ZM234.283 86.9474C233.572 86.9819 232.967 86.4331 232.933 85.7216C232.898 85.01 233.447 84.4052 234.158 84.3707C237.761 84.196 241.233 84.1183 244.576 84.1341C245.288 84.1375 245.863 84.7177 245.86 85.4301C245.856 86.1425 245.276 86.7172 244.564 86.7138C241.269 86.6982 237.843 86.7748 234.283 86.9474ZM329.005 61.8022C328.293 61.823 327.698 61.2627 327.678 60.5506C327.657 59.8385 328.217 59.2444 328.929 59.2236C332.655 59.1147 335.958 58.5962 339.03 57.8819C339.723 57.7206 340.417 58.1522 340.578 58.8461C340.739 59.54 340.308 60.2333 339.614 60.3946C336.407 61.1404 332.931 61.6874 329.005 61.8022ZM359.692 54.9291C356.272 55.4302 353.08 56.3762 349.752 57.4303C349.072 57.6454 348.348 57.2693 348.132 56.5901C347.917 55.911 348.293 55.1861 348.973 54.971C352.313 53.9128 355.676 52.9102 359.318 52.3766C360.023 52.2734 360.678 52.761 360.781 53.4659C360.884 54.1707 360.397 54.8259 359.692 54.9291ZM369.747 54.9244C369.042 54.8221 368.553 54.1676 368.655 53.4626C368.758 52.7576 369.412 52.2691 370.117 52.3714C371.799 52.6156 373.556 52.98 375.406 53.4849C377.046 53.9327 378.545 54.4029 379.911 54.8932C380.581 55.1338 380.929 55.8725 380.689 56.543C380.448 57.2135 379.709 57.5619 379.039 57.3212C377.744 56.8563 376.31 56.4059 374.726 55.9736C372.973 55.4951 371.319 55.1527 369.747 54.9244ZM254.801 87.0837C254.09 87.034 253.554 86.4176 253.604 85.7069C253.654 84.9963 254.27 84.4605 254.981 84.5103C258.613 84.7645 262.066 85.145 265.339 85.6464C266.043 85.7543 266.527 86.4125 266.419 87.1167C266.311 87.8208 265.653 88.3043 264.949 88.1964C261.75 87.7065 258.368 87.3334 254.801 87.0837ZM274.93 90.2511C274.242 90.0686 273.832 89.3624 274.014 88.6738C274.197 87.9852 274.903 87.575 275.591 87.7576C279.185 88.7102 282.504 89.8424 285.55 91.1442C286.205 91.4241 286.51 92.1821 286.23 92.8372C285.95 93.4923 285.192 93.7964 284.537 93.5164C281.616 92.2682 278.415 91.1751 274.93 90.2511ZM386.776 61.3901C386.231 60.9317 386.16 60.118 386.619 59.5727C387.077 59.0274 387.891 58.9569 388.436 59.4153C390.137 60.8454 391.24 62.3954 391.787 64.0357C392.336 65.6822 392.293 67.3259 391.854 68.8829C391.66 69.5685 390.948 69.9675 390.262 69.7741C389.577 69.5807 389.178 68.8681 389.371 68.1824C389.69 67.053 389.703 65.9429 389.34 64.8516C388.974 63.7541 388.194 62.5823 386.776 61.3901ZM158.228 130.659C155.515 131.368 152.81 132.272 150.225 133.276C149.561 133.534 148.814 133.205 148.556 132.541C148.298 131.877 148.627 131.129 149.291 130.871C151.952 129.838 154.753 128.9 157.576 128.163C158.266 127.983 158.97 128.396 159.15 129.086C159.33 129.775 158.917 130.48 158.228 130.659ZM166.436 129.207C165.726 129.264 165.104 128.734 165.048 128.023C164.992 127.313 165.522 126.692 166.232 126.636C169.353 126.389 172.396 126.531 175.171 127.244C175.861 127.421 176.277 128.124 176.1 128.814C175.922 129.504 175.219 129.92 174.529 129.742C172.104 129.12 169.36 128.976 166.436 129.207ZM141.35 134.404C141.986 134.084 142.761 134.34 143.082 134.977C143.402 135.613 143.146 136.389 142.509 136.709C141.184 137.376 139.952 138.039 138.838 138.675C137.593 139.524 136.13 140.618 134.548 141.92C133.998 142.373 133.185 142.294 132.732 141.744C132.279 141.194 132.358 140.381 132.908 139.929C134.562 138.567 136.103 137.416 137.428 136.514C137.456 136.496 137.484 136.478 137.513 136.462C138.679 135.793 139.967 135.1 141.35 134.404ZM293.357 98.3088C292.77 97.9051 292.621 97.1021 293.025 96.5151C293.429 95.9281 294.232 95.7795 294.819 96.1832C297.901 98.3029 300.546 100.678 302.751 103.285C303.211 103.829 303.143 104.643 302.599 105.103C302.055 105.563 301.241 105.495 300.781 104.951C298.735 102.532 296.265 100.309 293.357 98.3088ZM384.373 74.8663C384.92 74.4094 385.733 74.482 386.19 75.0286C386.647 75.5751 386.574 76.3886 386.028 76.8455C384.843 77.8358 383.591 78.7218 382.374 79.4734C381.492 80.8784 380.659 82.2799 379.872 83.677C379.522 84.2976 378.736 84.5172 378.115 84.1676C377.494 83.8179 377.275 83.0312 377.624 82.4106C378.48 80.8914 379.389 79.3681 380.353 77.8418C380.46 77.6723 380.605 77.53 380.776 77.4264C381.973 76.7032 383.213 75.8364 384.373 74.8663ZM181.161 133.622C180.689 133.089 180.738 132.273 181.272 131.801C181.805 131.329 182.62 131.378 183.092 131.912C184.081 133.029 184.927 134.332 185.609 135.832C186.131 136.981 186.94 138.267 188.029 139.662C188.467 140.223 188.367 141.034 187.806 141.472C187.245 141.911 186.434 141.811 185.996 141.25C184.823 139.748 183.891 138.287 183.26 136.9C182.679 135.62 181.971 134.537 181.161 133.622ZM124.727 147.7C125.208 147.174 126.023 147.137 126.55 147.617C127.076 148.097 127.113 148.913 126.633 149.439C124.245 152.058 121.947 154.961 120.009 158.05C119.63 158.653 118.834 158.835 118.231 158.457C117.627 158.078 117.445 157.282 117.824 156.678C119.86 153.434 122.257 150.408 124.727 147.7ZM372.898 91.9469C373.179 91.2923 373.938 90.9895 374.592 91.2706C375.247 91.5516 375.55 92.3101 375.269 92.9647C373.862 96.2406 372.695 99.4823 371.742 102.679C371.539 103.362 370.821 103.75 370.138 103.547C369.455 103.343 369.067 102.625 369.27 101.942C370.251 98.6501 371.452 95.3145 372.898 91.9469ZM305.926 113.396C305.656 112.737 305.971 111.984 306.63 111.714C307.29 111.443 308.043 111.759 308.313 112.418C309.648 115.675 310.48 119.145 310.821 122.793C310.887 123.503 310.366 124.131 309.656 124.198C308.947 124.264 308.318 123.743 308.252 123.033C307.933 119.623 307.159 116.403 305.926 113.396ZM113.055 167.073C113.249 166.388 113.962 165.989 114.647 166.184C115.333 166.378 115.731 167.091 115.537 167.776C115.05 169.497 114.73 171.232 114.609 172.971C114.474 174.909 114.816 176.389 115.473 177.571C115.819 178.193 115.595 178.979 114.972 179.325C114.349 179.671 113.564 179.446 113.218 178.824C112.28 177.136 111.872 175.142 112.035 172.793C112.17 170.858 112.524 168.946 113.055 167.073ZM192.911 148.361C192.375 147.892 192.32 147.078 192.788 146.541C193.257 146.005 194.072 145.95 194.608 146.419C196.816 148.348 199.339 150.327 202.119 152.303C202.7 152.716 202.836 153.521 202.423 154.102C202.011 154.683 201.205 154.819 200.625 154.406C197.783 152.387 195.191 150.354 192.911 148.361ZM366.852 112.324C366.97 111.621 367.636 111.148 368.338 111.267C369.041 111.385 369.514 112.051 369.395 112.754C368.804 116.255 368.454 119.685 368.31 123.029C368.28 123.741 367.678 124.293 366.966 124.262C366.254 124.232 365.702 123.63 365.733 122.918C365.881 119.47 366.242 115.933 366.852 112.324ZM208.826 159.768C208.216 159.4 208.019 158.607 208.387 157.997C208.755 157.387 209.547 157.19 210.157 157.558C212.828 159.168 215.638 160.738 218.552 162.237C219.185 162.563 219.434 163.341 219.108 163.975C218.782 164.608 218.005 164.857 217.371 164.531C214.406 163.006 211.546 161.407 208.826 159.768ZM307.956 133.042C308.056 132.336 308.708 131.846 309.414 131.946C310.119 132.046 310.61 132.698 310.51 133.404C310.04 136.722 309.232 140.143 308.097 143.648C307.877 144.326 307.15 144.697 306.472 144.477C305.794 144.258 305.423 143.53 305.642 142.853C306.737 139.474 307.508 136.198 307.956 133.042ZM122.927 185.248C122.248 185.033 121.871 184.308 122.086 183.629C122.301 182.95 123.025 182.573 123.705 182.788C125.936 183.493 128.411 184.088 131.066 184.725L131.066 184.726L131.07 184.726L131.07 184.726C132.104 184.975 133.166 185.23 134.252 185.501C134.943 185.673 135.364 186.374 135.191 187.065C135.019 187.756 134.319 188.176 133.628 188.004C132.599 187.747 131.57 187.5 130.554 187.256C127.862 186.61 125.252 185.982 122.927 185.248ZM226.212 168.714C225.558 168.432 225.258 167.672 225.54 167.018C225.823 166.365 226.582 166.064 227.236 166.347C230.166 167.614 233.157 168.788 236.178 169.842C236.85 170.077 237.205 170.812 236.971 171.485C236.736 172.157 236 172.512 235.328 172.278C232.244 171.202 229.196 170.005 226.212 168.714ZM143.908 191.205C143.249 190.936 142.933 190.183 143.202 189.523C143.472 188.864 144.225 188.548 144.884 188.817C148.324 190.224 151.668 192.048 154.636 194.565C155.18 195.026 155.246 195.84 154.786 196.383C154.325 196.926 153.511 196.993 152.968 196.532C150.26 194.236 147.17 192.539 143.908 191.205ZM365.938 133.57C365.88 132.86 366.409 132.238 367.119 132.18C367.829 132.122 368.451 132.651 368.509 133.361C368.797 136.911 369.301 140.33 369.97 143.597C370.113 144.294 369.664 144.976 368.966 145.119C368.268 145.262 367.586 144.812 367.443 144.114C366.754 140.751 366.235 137.228 365.938 133.57ZM301.861 152.297C302.166 151.653 302.935 151.378 303.579 151.683C304.223 151.988 304.497 152.757 304.193 153.401C303.46 154.947 302.67 156.506 301.822 158.076C301.005 159.59 300.124 161.008 299.181 162.332C298.768 162.912 297.963 163.048 297.382 162.635C296.802 162.222 296.666 161.417 297.079 160.836C297.958 159.601 298.784 158.274 299.552 156.851C300.379 155.319 301.149 153.8 301.861 152.297ZM244.705 175.128C244.015 174.951 243.6 174.247 243.778 173.558C243.956 172.868 244.659 172.452 245.349 172.63C248.484 173.438 251.616 174.089 254.712 174.557C255.416 174.663 255.901 175.32 255.795 176.025C255.688 176.729 255.031 177.214 254.327 177.108C251.135 176.626 247.917 175.956 244.705 175.128ZM290.692 167.606C291.25 167.163 292.061 167.257 292.504 167.815C292.947 168.372 292.854 169.184 292.296 169.627C289.637 171.737 286.734 173.403 283.644 174.672C282.985 174.943 282.231 174.628 281.96 173.97C281.69 173.311 282.004 172.557 282.663 172.286C285.543 171.103 288.234 169.557 290.692 167.606ZM159.369 204.697C159.049 204.06 159.306 203.285 159.942 202.965C160.579 202.645 161.354 202.902 161.674 203.539C162.486 205.155 163.191 206.917 163.774 208.839C164.319 210.637 164.698 212.427 164.929 214.208C165.021 214.914 164.522 215.561 163.816 215.653C163.11 215.745 162.462 215.247 162.371 214.54C162.158 212.898 161.808 211.247 161.305 209.588C160.763 207.8 160.112 206.176 159.369 204.697ZM264.143 177.964C263.431 177.951 262.864 177.363 262.877 176.651C262.89 175.938 263.478 175.372 264.191 175.385C267.437 175.444 270.595 175.251 273.624 174.771C274.328 174.66 274.988 175.14 275.1 175.843C275.211 176.547 274.731 177.208 274.028 177.319C270.832 177.825 267.522 178.026 264.143 177.964ZM370.194 154.392C369.969 153.716 370.335 152.986 371.011 152.761C371.687 152.537 372.418 152.903 372.642 153.579C373.795 157.048 375.104 160.263 376.484 163.186C376.789 163.83 376.513 164.599 375.869 164.903C375.225 165.207 374.456 164.932 374.152 164.287C372.729 161.275 371.38 157.963 370.194 154.392ZM162.095 224.665C162.216 223.963 162.883 223.492 163.585 223.613C164.287 223.734 164.759 224.401 164.638 225.103C164.03 228.635 162.974 232.1 161.644 235.482C161.383 236.145 160.635 236.471 159.972 236.211C159.309 235.95 158.983 235.201 159.243 234.538C160.525 231.278 161.524 227.986 162.095 224.665ZM379.341 173.617C378.951 173.021 379.118 172.221 379.714 171.831C380.31 171.441 381.109 171.608 381.5 172.204C382.505 173.739 383.492 175.102 384.43 176.28C385.688 177.451 386.983 178.695 388.299 179.999C388.805 180.5 388.809 181.317 388.308 181.823C387.806 182.329 386.989 182.333 386.483 181.831C385.162 180.522 383.862 179.275 382.603 178.104C382.593 178.095 382.584 178.086 382.575 178.078C382.559 178.062 382.544 178.045 382.528 178.029C382.509 178.008 382.491 177.987 382.474 177.965C381.463 176.701 380.408 175.247 379.341 173.617ZM154.829 243.963C155.163 243.334 155.944 243.094 156.573 243.428C157.202 243.762 157.442 244.543 157.108 245.172C155.432 248.33 153.641 251.419 151.892 254.415C151.533 255.03 150.743 255.238 150.128 254.879C149.513 254.52 149.305 253.73 149.664 253.115C151.413 250.117 153.181 247.069 154.829 243.963ZM393.897 189.641C393.423 189.109 393.469 188.294 394.001 187.82C394.532 187.345 395.348 187.392 395.822 187.923C398.229 190.621 400.598 193.448 402.825 196.335C403.26 196.899 403.155 197.709 402.591 198.144C402.027 198.579 401.217 198.474 400.782 197.91C398.598 195.078 396.269 192.298 393.897 189.641ZM144.418 262.332C144.754 261.704 145.536 261.467 146.164 261.804C146.792 262.14 147.029 262.922 146.692 263.55C144.928 266.843 143.444 269.981 142.451 272.969C142.226 273.645 141.496 274.011 140.82 273.786C140.144 273.561 139.778 272.831 140.003 272.155C141.063 268.966 142.624 265.681 144.418 262.332ZM406.928 206.699C406.552 206.094 406.738 205.299 407.343 204.923C407.948 204.547 408.743 204.732 409.119 205.337C411.175 208.644 412.926 211.954 414.211 215.163C414.476 215.825 414.155 216.575 413.493 216.84C412.832 217.105 412.081 216.784 411.816 216.122C410.601 213.088 408.927 209.915 406.928 206.699ZM138.778 283.155C138.659 282.453 139.132 281.787 139.834 281.668C140.537 281.549 141.202 282.021 141.322 282.724C141.585 284.274 142.112 285.775 142.957 287.231C143.723 288.552 144.477 289.791 145.229 290.953C145.616 291.552 145.444 292.35 144.846 292.737C144.248 293.124 143.449 292.953 143.063 292.354C142.284 291.15 141.508 289.875 140.725 288.526C139.723 286.798 139.092 285.004 138.778 283.155ZM339.852 239.437C339.163 239.617 338.458 239.204 338.277 238.515C338.097 237.826 338.51 237.121 339.199 236.941C342.645 236.04 345.527 235.728 348.191 235.802C348.904 235.822 349.465 236.415 349.445 237.128C349.425 237.84 348.832 238.401 348.12 238.381C345.724 238.314 343.087 238.59 339.852 239.437ZM330.771 239.871C331.429 239.596 332.184 239.906 332.459 240.564C332.733 241.221 332.423 241.977 331.766 242.251C329.417 243.232 326.815 244.432 323.901 245.888C323.264 246.207 322.489 245.949 322.171 245.311C321.852 244.674 322.111 243.899 322.748 243.581C325.703 242.104 328.359 240.878 330.771 239.871ZM314.957 247.678C315.582 247.335 316.366 247.564 316.708 248.189C317.051 248.813 316.822 249.597 316.197 249.94C314.966 250.615 313.69 251.325 312.366 252.074C310.979 252.858 309.666 253.64 308.422 254.42C307.819 254.798 307.023 254.616 306.644 254.012C306.266 253.408 306.449 252.612 307.052 252.234C308.331 251.433 309.677 250.631 311.096 249.828C312.429 249.075 313.715 248.358 314.957 247.678ZM356.445 239.768C355.755 239.592 355.338 238.89 355.513 238.199C355.689 237.509 356.391 237.092 357.082 237.268C357.574 237.393 358.07 237.522 358.574 237.652L358.59 237.656L358.597 237.658L358.597 237.658C359.779 237.965 361.003 238.282 362.31 238.592L366.563 222.144L368.333 222.601L367.875 224.37L380.259 227.573L377.346 231.538L377.971 236.419L365.587 233.216L364.093 238.995C364.554 239.095 365.026 239.192 365.511 239.287C366.21 239.424 366.666 240.102 366.529 240.801C366.392 241.5 365.714 241.956 365.015 241.819C362.34 241.295 360.025 240.694 357.924 240.149L357.922 240.148L357.921 240.148L357.905 240.144C357.407 240.015 356.921 239.889 356.445 239.768ZM413.978 226.142C413.996 225.43 414.587 224.867 415.299 224.884C416.011 224.901 416.575 225.493 416.557 226.205C416.459 230.257 415.015 233.896 411.774 236.72C411.237 237.188 410.422 237.132 409.954 236.595C409.486 236.058 409.542 235.244 410.079 234.776C412.707 232.486 413.895 229.565 413.978 226.142ZM148.587 299.535C148.096 299.018 148.117 298.202 148.633 297.711C149.149 297.22 149.966 297.241 150.456 297.757C152.465 299.869 154.615 301.568 157.08 302.929C157.704 303.274 157.93 304.058 157.586 304.682C157.241 305.306 156.456 305.532 155.833 305.188C153.117 303.688 150.76 301.82 148.587 299.535ZM299.376 257.637C299.933 257.194 300.745 257.286 301.188 257.844C301.632 258.401 301.539 259.213 300.982 259.656C298.374 261.731 296.175 263.781 294.277 265.798C293.789 266.317 292.972 266.341 292.454 265.853C291.935 265.365 291.91 264.549 292.398 264.03C294.381 261.923 296.671 259.789 299.376 257.637ZM373.831 243.011C373.121 242.956 372.589 242.336 372.644 241.626C372.699 240.916 373.319 240.384 374.03 240.439C376.578 240.636 379.427 240.734 382.654 240.685C383.366 240.674 383.953 241.243 383.964 241.955C383.974 242.668 383.406 243.254 382.693 243.265C379.39 243.315 376.462 243.215 373.831 243.011ZM391.53 242.819C390.82 242.877 390.197 242.349 390.139 241.639C390.08 240.929 390.609 240.306 391.319 240.248C392.705 240.134 394.147 239.996 395.649 239.833C397.57 239.624 399.315 239.333 400.893 238.97C401.587 238.811 402.279 239.244 402.439 239.938C402.599 240.633 402.165 241.325 401.471 241.484C399.782 241.873 397.937 242.179 395.928 242.397C394.404 242.563 392.94 242.703 391.53 242.819ZM286.478 271.374C286.884 270.788 287.687 270.642 288.273 271.048C288.859 271.453 289.004 272.257 288.599 272.842C286.768 275.486 285.258 278.057 283.781 280.57L283.758 280.609C283.397 281.223 282.607 281.429 281.992 281.068C281.378 280.707 281.173 279.916 281.534 279.302L281.574 279.233L281.574 279.233L281.575 279.232C283.041 276.737 284.593 274.096 286.478 271.374ZM164.38 308.435C163.688 308.265 163.266 307.566 163.436 306.874C163.607 306.183 164.305 305.76 164.997 305.93C167.509 306.549 170.325 307.004 173.532 307.318C174.241 307.388 174.759 308.019 174.69 308.728C174.62 309.437 173.989 309.955 173.28 309.886C169.982 309.563 167.039 309.09 164.38 308.435ZM182.18 310.4C181.468 310.381 180.906 309.789 180.924 309.077C180.942 308.365 181.534 307.802 182.246 307.821C184.951 307.89 187.871 307.901 191.033 307.863C191.745 307.854 192.329 308.425 192.338 309.137C192.347 309.849 191.776 310.434 191.064 310.442C187.877 310.481 184.925 310.47 182.18 310.4ZM276.648 286.994C277.071 286.421 277.879 286.3 278.452 286.723C279.025 287.147 279.146 287.954 278.723 288.527C276.911 290.98 274.814 293.304 272.112 295.453C271.554 295.896 270.743 295.803 270.3 295.246C269.856 294.688 269.949 293.876 270.507 293.433C273 291.451 274.943 289.302 276.648 286.994ZM199.928 310.237C199.216 310.26 198.62 309.701 198.597 308.989C198.574 308.277 199.133 307.682 199.845 307.659C201.276 307.612 202.748 307.56 204.264 307.501C205.872 307.439 207.442 307.372 208.977 307.298C209.688 307.264 210.293 307.813 210.327 308.524C210.361 309.236 209.812 309.841 209.1 309.875C207.558 309.949 205.979 310.017 204.363 310.079C202.843 310.138 201.365 310.191 199.928 310.237ZM218.363 309.331C217.652 309.381 217.036 308.846 216.986 308.135C216.936 307.424 217.471 306.808 218.182 306.758C221.414 306.53 224.46 306.273 227.335 305.986C228.043 305.915 228.675 306.432 228.746 307.141C228.817 307.85 228.3 308.482 227.591 308.553C224.689 308.842 221.618 309.102 218.363 309.331ZM236.834 307.453C236.129 307.552 235.476 307.061 235.377 306.355C235.278 305.65 235.769 304.997 236.475 304.898C239.759 304.436 242.768 303.927 245.53 303.373C246.229 303.233 246.908 303.685 247.048 304.384C247.189 305.082 246.736 305.762 246.037 305.902C243.22 306.467 240.162 306.985 236.834 307.453ZM262.868 298.069C263.514 297.768 264.282 298.049 264.582 298.695C264.882 299.341 264.602 300.108 263.956 300.408C261.406 301.593 258.498 302.685 255.146 303.678C254.463 303.88 253.745 303.49 253.543 302.807C253.341 302.124 253.73 301.407 254.413 301.204C257.662 300.242 260.449 299.193 262.868 298.069ZM372.523 231.624C372.087 231.881 371.625 231.946 371.139 231.82C370.653 231.695 370.281 231.415 370.024 230.978C369.767 230.542 369.701 230.08 369.827 229.594C369.952 229.108 370.233 228.736 370.669 228.479C371.106 228.222 371.567 228.156 372.054 228.282C372.54 228.407 372.911 228.688 373.169 229.124C373.426 229.561 373.491 230.022 373.365 230.509C373.24 230.995 372.96 231.366 372.523 231.624ZM183.505 611.442C183.726 612.119 184.455 612.488 185.132 612.267C188.218 611.257 191.068 609.933 193.673 608.364C194.283 607.997 194.48 607.204 194.113 606.594C193.745 605.984 192.952 605.787 192.342 606.154C189.9 607.625 187.227 608.867 184.33 609.815C183.653 610.036 183.283 610.765 183.505 611.442ZM177.106 612.79C177.032 612.081 176.398 611.567 175.689 611.641C172.89 611.932 169.93 611.97 166.812 611.712C166.102 611.653 165.478 612.181 165.42 612.891C165.361 613.6 165.889 614.224 166.599 614.283C169.872 614.554 172.993 614.515 175.956 614.206C176.665 614.133 177.18 613.498 177.106 612.79ZM199.304 602.601C199.799 603.113 200.616 603.126 201.128 602.631C203.44 600.396 205.438 597.95 207.112 595.392C207.502 594.796 207.335 593.996 206.739 593.606C206.142 593.216 205.343 593.383 204.953 593.979C203.382 596.382 201.506 598.678 199.335 600.777C198.823 601.272 198.809 602.088 199.304 602.601ZM159.004 611.831C159.172 611.138 158.746 610.441 158.054 610.274C155.296 609.606 152.436 608.718 149.474 607.586C148.809 607.332 148.063 607.666 147.809 608.331C147.555 608.997 147.888 609.742 148.554 609.996C151.612 611.165 154.577 612.086 157.447 612.781C158.139 612.949 158.836 612.523 159.004 611.831ZM209.679 587.758C210.349 588.001 211.088 587.655 211.331 586.985C212.454 583.889 213.137 580.767 213.359 577.763C213.411 577.053 212.878 576.435 212.168 576.382C211.457 576.33 210.839 576.863 210.786 577.574C210.583 580.323 209.954 583.214 208.906 586.106C208.663 586.776 209.009 587.516 209.679 587.758ZM141.878 605.693C142.199 605.057 141.943 604.281 141.307 603.961C139.981 603.292 138.636 602.575 137.275 601.81C135.688 600.919 134.137 600.068 132.621 599.255C131.994 598.918 131.212 599.154 130.875 599.782C130.538 600.41 130.775 601.192 131.402 601.528C132.903 602.333 134.439 603.176 136.011 604.059C137.405 604.843 138.784 605.577 140.145 606.264C140.781 606.585 141.557 606.329 141.878 605.693ZM123.829 596.206C124.135 595.563 123.862 594.793 123.219 594.487C119.81 592.865 116.599 591.461 113.565 590.251C112.904 589.988 112.153 590.31 111.89 590.972C111.626 591.634 111.948 592.384 112.61 592.648C115.587 593.835 118.747 595.216 122.11 596.816C122.753 597.122 123.523 596.849 123.829 596.206ZM211.488 569.874C212.164 569.647 212.527 568.915 212.299 568.24C211.222 565.039 209.36 562.272 206.656 560.288C206.082 559.866 205.275 559.99 204.853 560.564C204.432 561.139 204.556 561.946 205.13 562.367C207.348 563.995 208.922 566.294 209.854 569.063C210.082 569.738 210.813 570.101 211.488 569.874ZM104.442 588.36C104.644 587.677 104.254 586.96 103.571 586.757C99.8305 585.65 96.4002 584.879 93.2261 584.381C92.5223 584.27 91.8623 584.751 91.7518 585.455C91.6414 586.159 92.1224 586.819 92.8262 586.929C95.8784 587.408 99.1975 588.153 102.839 589.231C103.522 589.433 104.239 589.043 104.442 588.36ZM198.676 558.508C198.726 557.797 198.19 557.181 197.48 557.131C195.971 557.025 194.362 557.064 192.654 557.257C190.91 557.453 189.193 557.63 187.502 557.787C186.792 557.853 186.271 558.482 186.337 559.191C186.403 559.9 187.031 560.422 187.74 560.356C189.449 560.197 191.183 560.019 192.943 559.82C194.51 559.643 195.961 559.611 197.3 559.704C198.01 559.754 198.627 559.218 198.676 558.508ZM178.625 559.743C178.591 559.031 177.986 558.482 177.274 558.517C173.715 558.689 170.288 558.766 166.994 558.75C166.282 558.747 165.702 559.322 165.698 560.034C165.695 560.746 166.27 561.327 166.982 561.33C170.325 561.346 173.797 561.268 177.399 561.093C178.111 561.059 178.66 560.454 178.625 559.743ZM83.88 584.914C83.8592 584.201 83.2651 583.641 82.553 583.662C78.6266 583.777 75.1503 584.324 71.9437 585.069C71.2499 585.231 70.8182 585.924 70.9796 586.618C71.1409 587.312 71.8342 587.744 72.5281 587.582C75.5994 586.868 78.9031 586.349 82.6284 586.241C83.3405 586.22 83.9008 585.626 83.88 584.914ZM61.8061 588.034C58.4781 589.088 55.2857 590.034 51.8659 590.535C51.161 590.638 50.6734 591.293 50.7766 591.998C50.8799 592.703 51.535 593.191 52.2399 593.087C55.8815 592.554 59.2443 591.551 62.5851 590.493C63.2643 590.278 63.6404 589.553 63.4253 588.874C63.2102 588.195 62.4853 587.819 61.8061 588.034ZM157.954 559.757C158.003 559.047 157.468 558.43 156.757 558.38C153.19 558.131 149.808 557.758 146.609 557.268C145.905 557.16 145.247 557.643 145.139 558.347C145.031 559.052 145.514 559.71 146.218 559.818C149.492 560.319 152.945 560.7 156.577 560.954C157.288 561.004 157.904 560.468 157.954 559.757ZM137.544 556.79C137.726 556.102 137.316 555.396 136.627 555.213C133.143 554.289 129.942 553.196 127.021 551.948C126.366 551.668 125.608 551.972 125.328 552.627C125.048 553.282 125.352 554.04 126.007 554.32C129.054 555.622 132.373 556.754 135.966 557.707C136.655 557.889 137.361 557.479 137.544 556.79ZM24.9392 585.891C25.3975 585.346 25.3271 584.532 24.7817 584.074C23.3634 582.882 22.584 581.71 22.2181 580.612C21.8542 579.521 21.868 578.411 22.1866 577.282C22.3801 576.596 21.9811 575.883 21.2954 575.69C20.6098 575.497 19.8972 575.896 19.7038 576.581C19.2646 578.138 19.2218 579.782 19.7708 581.428C20.3176 583.069 21.4205 584.619 23.1218 586.049C23.6671 586.507 24.4808 586.437 24.9392 585.891ZM261.333 512.188C258.748 513.192 256.042 514.096 253.33 514.805C252.641 514.985 252.228 515.689 252.408 516.378C252.587 517.068 253.292 517.481 253.981 517.301C256.805 516.564 259.605 515.627 262.267 514.593C262.931 514.335 263.26 513.587 263.002 512.923C262.744 512.259 261.997 511.93 261.333 512.188ZM246.509 517.441C246.453 516.731 245.832 516.2 245.122 516.257C242.197 516.488 239.454 516.345 237.028 515.722C236.338 515.544 235.635 515.96 235.458 516.65C235.281 517.34 235.697 518.043 236.387 518.22C239.162 518.933 242.205 519.075 245.325 518.828C246.036 518.772 246.566 518.151 246.509 517.441ZM268.476 510.487C268.796 511.124 269.572 511.38 270.208 511.06C271.59 510.364 272.878 509.671 274.045 509.003C274.074 508.986 274.102 508.968 274.129 508.95C275.455 508.048 276.996 506.897 278.65 505.535C279.2 505.083 279.278 504.27 278.826 503.72C278.373 503.17 277.56 503.091 277.01 503.544C275.428 504.847 273.965 505.94 272.72 506.789C271.606 507.425 270.374 508.088 269.048 508.755C268.412 509.076 268.156 509.851 268.476 510.487ZM118.533 548.949C118.936 548.362 118.788 547.559 118.201 547.155C115.293 545.155 112.822 542.932 110.776 540.513C110.316 539.969 109.502 539.901 108.959 540.361C108.415 540.821 108.347 541.635 108.807 542.179C111.012 544.787 113.657 547.161 116.739 549.281C117.326 549.685 118.129 549.536 118.533 548.949ZM25.3677 570.435C25.8246 570.982 26.638 571.055 27.1846 570.598C28.345 569.628 29.5846 568.761 30.7814 568.038C30.953 567.934 31.098 567.792 31.205 567.622C32.1687 566.096 33.0774 564.573 33.9334 563.053C34.2831 562.433 34.0634 561.646 33.4428 561.297C32.8221 560.947 32.0355 561.167 31.6858 561.787C30.8987 563.184 30.0653 564.586 29.1837 565.991C27.9669 566.742 26.7145 567.628 25.53 568.619C24.9834 569.076 24.9107 569.889 25.3677 570.435ZM230.286 513.663C230.819 513.191 230.869 512.375 230.397 511.842C229.587 510.927 228.879 509.844 228.297 508.564C227.667 507.177 226.735 505.716 225.562 504.215C225.124 503.653 224.313 503.553 223.752 503.992C223.19 504.43 223.09 505.241 223.529 505.802C224.618 507.197 225.427 508.483 225.949 509.632C226.631 511.133 227.476 512.436 228.465 513.552C228.938 514.086 229.753 514.135 230.286 513.663ZM285.008 497.847C285.534 498.327 286.35 498.29 286.83 497.764C289.3 495.056 291.698 492.03 293.734 488.786C294.113 488.182 293.931 487.386 293.327 487.007C292.724 486.629 291.928 486.811 291.549 487.414C289.611 490.503 287.313 493.406 284.924 496.025C284.444 496.551 284.482 497.367 285.008 497.847ZM36.9655 554.194C37.62 554.475 38.3785 554.172 38.6596 553.517C40.1055 550.15 41.3067 546.814 42.2877 543.522C42.4911 542.839 42.1026 542.121 41.4199 541.917C40.7372 541.714 40.0188 542.102 39.8154 542.785C38.8629 545.982 37.6956 549.224 36.2891 552.499C36.008 553.154 36.3109 553.912 36.9655 554.194ZM104.927 533.751C105.586 533.48 105.902 532.727 105.632 532.068C104.399 529.061 103.624 525.841 103.306 522.431C103.239 521.721 102.611 521.2 101.901 521.266C101.192 521.333 100.671 521.961 100.737 522.671C101.078 526.319 101.91 529.789 103.245 533.046C103.515 533.705 104.268 534.021 104.927 533.751ZM296.911 479.281C297.596 479.475 298.309 479.076 298.503 478.391C299.033 476.518 299.388 474.607 299.523 472.672C299.686 470.322 299.278 468.328 298.34 466.64C297.994 466.018 297.209 465.793 296.586 466.139C295.963 466.485 295.739 467.271 296.085 467.893C296.742 469.075 297.084 470.555 296.949 472.493C296.828 474.232 296.508 475.967 296.021 477.688C295.827 478.373 296.225 479.086 296.911 479.281ZM218.769 498.923C219.238 498.386 219.183 497.572 218.647 497.103C216.366 495.11 213.774 493.077 210.933 491.058C210.352 490.645 209.547 490.781 209.134 491.362C208.722 491.943 208.858 492.748 209.439 493.161C212.219 495.137 214.742 497.116 216.949 499.045C217.486 499.514 218.3 499.459 218.769 498.923ZM43.2192 534.197C43.9216 534.316 44.5873 533.843 44.706 533.141C45.3162 529.531 45.6771 525.994 45.825 522.546C45.8555 521.834 45.3033 521.232 44.5916 521.202C43.8799 521.171 43.2781 521.723 43.2476 522.435C43.1042 525.779 42.7542 529.209 42.1624 532.711C42.0436 533.413 42.5168 534.079 43.2192 534.197ZM203.171 487.467C203.539 486.857 203.342 486.064 202.732 485.697C200.012 484.057 197.151 482.458 194.186 480.933C193.553 480.607 192.775 480.856 192.449 481.49C192.123 482.123 192.373 482.901 193.006 483.227C195.92 484.726 198.73 486.296 201.4 487.906C202.01 488.274 202.803 488.077 203.171 487.467ZM102.144 513.519C102.849 513.619 103.502 513.128 103.602 512.422C104.049 509.266 104.82 505.99 105.915 502.611C106.135 501.934 105.763 501.206 105.086 500.987C104.408 500.767 103.681 501.138 103.461 501.816C102.325 505.322 101.518 508.742 101.048 512.06C100.948 512.766 101.439 513.419 102.144 513.519ZM289.472 461.835C289.686 461.156 289.31 460.431 288.63 460.216C286.306 459.482 283.695 458.855 281.004 458.208L281.003 458.208C279.986 457.964 278.958 457.717 277.93 457.46C277.239 457.288 276.539 457.708 276.366 458.399C276.194 459.091 276.615 459.791 277.306 459.963C278.392 460.234 279.455 460.49 280.491 460.738L280.492 460.739C283.147 461.376 285.622 461.971 287.853 462.676C288.532 462.891 289.257 462.514 289.472 461.835ZM186.017 478.446C186.3 477.792 185.999 477.033 185.345 476.75C182.362 475.459 179.313 474.262 176.23 473.186C175.557 472.952 174.822 473.307 174.587 473.979C174.352 474.652 174.707 475.387 175.38 475.622C178.401 476.676 181.392 477.85 184.321 479.117C184.975 479.4 185.735 479.099 186.017 478.446ZM268.355 455.941C268.625 455.282 268.309 454.528 267.65 454.259C264.387 452.925 261.297 451.228 258.59 448.932C258.047 448.471 257.233 448.538 256.772 449.081C256.311 449.624 256.378 450.438 256.921 450.899C259.889 453.417 263.234 455.24 266.673 456.647C267.333 456.916 268.086 456.6 268.355 455.941ZM44.4388 513.284C45.1489 513.226 45.6778 512.604 45.6201 511.894C45.3232 508.236 44.8039 504.713 44.1146 501.35C43.9716 500.652 43.2899 500.202 42.5921 500.345C41.8942 500.488 41.4444 501.17 41.5874 501.868C42.2567 505.134 42.7607 508.553 43.0488 512.103C43.1065 512.813 43.7288 513.342 44.4388 513.284ZM107.979 493.781C108.623 494.086 109.392 493.811 109.697 493.167C110.409 491.664 111.178 490.145 112.005 488.613C112.774 487.19 113.6 485.863 114.478 484.628C114.891 484.047 114.756 483.242 114.175 482.829C113.595 482.416 112.789 482.552 112.376 483.132C111.434 484.457 110.552 485.874 109.735 487.388C108.888 488.958 108.097 490.517 107.365 492.063C107.06 492.707 107.335 493.476 107.979 493.781ZM167.78 471.907C167.957 471.217 167.542 470.513 166.852 470.336C163.641 469.508 160.422 468.838 157.231 468.357C156.527 468.25 155.869 468.735 155.763 469.439C155.657 470.144 156.142 470.801 156.846 470.907C159.942 471.375 163.074 472.026 166.209 472.834C166.899 473.012 167.602 472.596 167.78 471.907ZM119.054 477.65C119.497 478.208 120.308 478.301 120.866 477.858C123.324 475.907 126.015 474.361 128.894 473.178C129.553 472.907 129.868 472.153 129.597 471.495C129.327 470.836 128.573 470.521 127.914 470.792C124.824 472.061 121.921 473.727 119.262 475.837C118.704 476.28 118.611 477.092 119.054 477.65ZM251.615 442.499C252.252 442.179 252.509 441.404 252.189 440.768C251.446 439.288 250.795 437.664 250.253 435.876C249.749 434.217 249.4 432.566 249.187 430.924C249.095 430.218 248.448 429.719 247.742 429.811C247.035 429.903 246.537 430.55 246.629 431.256C246.86 433.037 247.239 434.827 247.784 436.625C248.367 438.547 249.072 440.309 249.884 441.925C250.204 442.562 250.979 442.819 251.615 442.499ZM148.68 468.813C148.693 468.101 148.127 467.513 147.414 467.5C144.036 467.438 140.726 467.639 137.53 468.145C136.827 468.256 136.346 468.917 136.458 469.621C136.569 470.324 137.23 470.804 137.934 470.693C140.963 470.213 144.121 470.02 147.367 470.079C148.079 470.093 148.667 469.526 148.68 468.813ZM40.5463 492.703C41.2223 492.478 41.5883 491.748 41.3638 491.072C40.1776 487.501 38.8289 484.189 37.4058 481.177C37.1015 480.533 36.3327 480.257 35.6886 480.561C35.0445 480.866 34.769 481.634 35.0732 482.279C36.4536 485.201 37.7632 488.416 38.9156 491.885C39.1401 492.561 39.8702 492.927 40.5463 492.703ZM247.972 421.851C248.675 421.972 249.342 421.501 249.462 420.799C250.034 417.478 251.032 414.186 252.314 410.926C252.575 410.263 252.249 409.514 251.586 409.253C250.923 408.993 250.174 409.319 249.914 409.982C248.583 413.364 247.528 416.829 246.92 420.361C246.799 421.063 247.27 421.73 247.972 421.851ZM31.8437 473.633C32.4397 473.243 32.6066 472.443 32.2164 471.847C31.1495 470.218 30.0947 468.763 29.084 467.499C29.0445 467.45 29.0014 467.403 28.955 467.36C27.6953 466.189 26.3956 464.943 25.0743 463.633C24.5684 463.131 23.7517 463.135 23.2502 463.641C22.7487 464.147 22.7523 464.964 23.2582 465.465C24.5743 466.77 25.8701 468.013 27.1281 469.184C28.066 470.362 29.053 471.725 30.058 473.26C30.4482 473.856 31.2477 474.023 31.8437 473.633ZM254.985 402.036C255.614 402.37 256.395 402.13 256.729 401.501C258.377 398.395 260.144 395.347 261.894 392.349C262.253 391.734 262.045 390.944 261.43 390.585C260.814 390.226 260.024 390.434 259.665 391.049C257.917 394.045 256.125 397.134 254.45 400.292C254.116 400.921 254.355 401.702 254.985 402.036ZM17.5568 457.645C18.0883 457.17 18.1348 456.355 17.6605 455.823C15.289 453.166 12.96 450.386 10.7755 447.554C10.3404 446.99 9.5304 446.885 8.96633 447.32C8.40226 447.755 8.29771 448.565 8.73281 449.129C10.9595 452.016 13.3286 454.843 15.7356 457.541C16.2099 458.072 17.0253 458.119 17.5568 457.645ZM265.394 383.661C266.022 383.997 266.803 383.76 267.14 383.132C268.934 379.783 270.494 376.498 271.555 373.309C271.78 372.633 271.414 371.903 270.738 371.678C270.062 371.453 269.332 371.819 269.107 372.495C268.113 375.483 266.629 378.621 264.865 381.915C264.529 382.543 264.766 383.324 265.394 383.661ZM4.21473 440.541C4.81974 440.165 5.00532 439.37 4.62924 438.765C2.63052 435.55 0.956852 432.376 -0.25856 429.342C-0.523415 428.68 -1.27422 428.359 -1.93553 428.624C-2.59684 428.889 -2.91824 429.639 -2.65338 430.301C-1.36792 433.51 0.382683 436.82 2.43829 440.127C2.81437 440.732 3.60971 440.917 4.21473 440.541ZM271.723 363.796C272.426 363.677 272.899 363.011 272.779 362.309C272.466 360.46 271.835 358.666 270.832 356.938C270.049 355.589 269.274 354.314 268.495 353.11C268.108 352.512 267.31 352.34 266.712 352.727C266.113 353.114 265.942 353.913 266.329 354.511C267.081 355.674 267.835 356.912 268.601 358.233C269.446 359.689 269.973 361.19 270.236 362.74C270.355 363.443 271.021 363.915 271.723 363.796ZM73.2803 406.949C73.1 406.26 72.3951 405.847 71.7059 406.027C68.4704 406.874 65.8332 407.15 63.4381 407.083C62.726 407.063 62.1327 407.624 62.1128 408.337C62.093 409.049 62.6542 409.642 63.3663 409.662C66.0312 409.736 68.9128 409.424 72.3588 408.523C73.048 408.343 73.4605 407.638 73.2803 406.949ZM79.0989 404.9C79.3734 405.558 80.1288 405.868 80.7862 405.594C83.1985 404.586 85.8544 403.36 88.8099 401.883C89.4471 401.565 89.7055 400.79 89.387 400.153C89.0685 399.516 88.2937 399.257 87.6565 399.576C84.7423 401.032 82.1403 402.232 79.7921 403.213C79.1348 403.488 78.8244 404.243 79.0989 404.9ZM94.8495 397.276C95.1919 397.9 95.9759 398.129 96.6006 397.787C97.8422 397.106 99.1283 396.389 100.461 395.636C101.881 394.833 103.227 394.031 104.505 393.23C105.109 392.852 105.292 392.056 104.913 391.452C104.535 390.849 103.739 390.666 103.135 391.044C101.891 391.824 100.578 392.606 99.1917 393.39C97.8677 394.139 96.5915 394.85 95.3605 395.524C94.7358 395.867 94.507 396.651 94.8495 397.276ZM56.0442 407.265C56.22 406.574 55.8028 405.872 55.1124 405.697C54.635 405.575 54.1474 405.448 53.6477 405.319L53.6368 405.316L53.6357 405.316L53.6348 405.315C51.5337 404.77 49.2184 404.17 46.5426 403.646C45.8435 403.509 45.1658 403.964 45.0289 404.663C44.8919 405.362 45.3477 406.04 46.0468 406.177C48.6388 406.685 50.864 407.262 52.9597 407.806L52.9608 407.806C53.4724 407.939 53.9763 408.069 54.476 408.197C55.1663 408.372 55.8684 407.955 56.0442 407.265ZM-3.74134 420.58C-3.02917 420.597 -2.43786 420.034 -2.42062 419.322C-2.33775 415.899 -1.14904 412.978 1.47843 410.689C2.01549 410.221 2.07145 409.406 1.60343 408.869C1.1354 408.332 0.320621 408.276 -0.216442 408.744C-3.45707 411.568 -4.9015 415.207 -4.99961 419.259C-5.01686 419.971 -4.45351 420.563 -3.74134 420.58ZM262.925 347.753C263.441 347.262 263.462 346.446 262.971 345.93C260.798 343.644 258.441 341.776 255.725 340.277C255.101 339.932 254.317 340.159 253.972 340.782C253.628 341.406 253.854 342.19 254.478 342.535C256.943 343.896 259.093 345.595 261.101 347.707C261.592 348.223 262.409 348.244 262.925 347.753ZM110.37 387.62C110.813 388.178 111.625 388.27 112.182 387.827C114.886 385.676 117.177 383.541 119.16 381.434C119.648 380.915 119.623 380.099 119.104 379.611C118.585 379.123 117.769 379.147 117.281 379.666C115.383 381.683 113.184 383.734 110.576 385.808C110.019 386.252 109.926 387.063 110.37 387.62ZM38.9135 403.838C38.9684 403.128 38.4372 402.508 37.7269 402.453C35.0961 402.249 32.1677 402.149 28.8642 402.199C28.1519 402.21 27.5833 402.797 27.5941 403.509C27.605 404.221 28.1912 404.79 28.9035 404.779C32.1311 404.73 34.9799 404.828 37.528 405.025C38.2383 405.08 38.8586 404.548 38.9135 403.838ZM21.4188 403.825C21.3604 403.115 20.7376 402.587 20.0276 402.646C18.6182 402.761 17.1535 402.901 15.63 403.067C13.6211 403.285 11.7758 403.591 10.0867 403.98C9.39244 404.139 8.95906 404.831 9.11871 405.526C9.27837 406.22 9.9706 406.653 10.6649 406.494C12.2431 406.131 13.9874 405.841 15.9089 405.632C17.4107 405.468 18.8529 405.331 20.239 405.217C20.949 405.158 21.4772 404.535 21.4188 403.825ZM123.285 374.417C123.87 374.822 124.674 374.676 125.08 374.091C126.965 371.368 128.517 368.727 129.984 366.231L130.024 366.162C130.385 365.548 130.18 364.757 129.565 364.396C128.951 364.036 128.161 364.241 127.8 364.855L127.777 364.894C126.3 367.408 124.79 369.978 122.959 372.622C122.553 373.207 122.699 374.011 123.285 374.417ZM248.122 338.59C248.292 337.898 247.869 337.199 247.178 337.029C244.519 336.374 241.576 335.901 238.278 335.578C237.569 335.509 236.938 336.027 236.868 336.736C236.799 337.445 237.317 338.076 238.026 338.146C241.233 338.46 244.049 338.915 246.561 339.534C247.252 339.704 247.951 339.282 248.122 338.59ZM230.634 336.387C230.652 335.675 230.089 335.083 229.377 335.064C226.633 334.994 223.68 334.983 220.494 335.022C219.782 335.03 219.211 335.615 219.22 336.327C219.228 337.039 219.813 337.61 220.525 337.601C223.687 337.563 226.607 337.574 229.311 337.643C230.023 337.662 230.616 337.099 230.634 336.387ZM133.106 358.741C133.679 359.164 134.486 359.043 134.91 358.47C136.614 356.162 138.558 354.013 141.051 352.031C141.609 351.588 141.701 350.776 141.258 350.219C140.815 349.661 140.003 349.568 139.446 350.012C136.743 352.16 134.647 354.484 132.835 356.937C132.411 357.51 132.533 358.317 133.106 358.741ZM212.961 336.475C212.938 335.763 212.342 335.204 211.63 335.227C210.193 335.273 208.715 335.326 207.194 335.385C205.579 335.447 204 335.515 202.457 335.589C201.746 335.624 201.197 336.228 201.231 336.94C201.265 337.651 201.869 338.2 202.581 338.166C204.115 338.093 205.686 338.025 207.294 337.963C208.809 337.904 210.282 337.852 211.713 337.806C212.425 337.783 212.984 337.187 212.961 336.475ZM194.572 337.329C194.522 336.619 193.905 336.083 193.195 336.133C189.94 336.362 186.868 336.622 183.967 336.911C183.258 336.982 182.741 337.614 182.812 338.323C182.882 339.032 183.514 339.549 184.223 339.478C187.097 339.191 190.144 338.934 193.376 338.706C194.086 338.656 194.622 338.04 194.572 337.329ZM176.181 339.109C176.081 338.404 175.429 337.912 174.724 338.011C171.396 338.479 168.338 338.997 165.52 339.562C164.822 339.702 164.369 340.382 164.509 341.08C164.649 341.779 165.329 342.231 166.028 342.091C168.79 341.537 171.799 341.028 175.083 340.566C175.788 340.467 176.28 339.814 176.181 339.109ZM146.976 346.769C147.276 347.415 148.043 347.696 148.689 347.396C151.109 346.271 153.896 345.222 157.144 344.26C157.827 344.058 158.217 343.34 158.015 342.657C157.812 341.974 157.095 341.584 156.411 341.786C153.06 342.779 150.152 343.871 147.602 345.056C146.956 345.356 146.676 346.123 146.976 346.769ZM37.323 580.04C42.8439 580.04 47.3195 584.515 47.3195 590.036C47.3195 595.557 42.8439 600.033 37.323 600.033C31.8021 600.033 27.3265 595.557 27.3265 590.036C27.3265 584.515 31.8021 580.04 37.323 580.04ZM55.0126 563.401C53.9679 563.701 52.8469 563.573 51.8963 563.046C51.4256 562.785 51.0109 562.434 50.6759 562.013C50.3409 561.592 50.0921 561.109 49.9438 560.592C49.7955 560.074 49.7505 559.533 49.8114 558.998C49.8723 558.464 50.0379 557.946 50.2989 557.475C50.8258 556.525 51.7087 555.822 52.7535 555.523C53.7983 555.223 54.9192 555.351 55.8698 555.878C56.8204 556.405 57.5228 557.288 57.8224 558.333C58.1219 559.377 57.9942 560.498 57.4673 561.449C56.9404 562.399 56.0574 563.102 55.0126 563.401ZM64.9131 556.299C64.0742 553.374 62.1077 550.902 59.446 549.426C56.7844 547.951 53.6456 547.593 50.7203 548.432C47.7949 549.271 45.3226 551.237 43.8473 553.899C39.675 561.426 43.5519 578.1 43.5519 578.1C43.5519 578.1 59.7467 572.552 63.9189 565.025C65.3943 562.363 65.7519 559.225 64.9131 556.299Z" fill="#FFF8E0"/>
</g>
<defs>
<filter id="filter0_d_445_832" x="-61.2653" y="0.133179" width="480.403" height="619.49" filterUnits="userSpaceOnUse" color-interpolation-filters="sRGB">
<feFlood flood-opacity="0" result="BackgroundImageFix"/>
<feColorMatrix in="SourceAlpha" type="matrix" values="0 0 0 0 0 0 0 0 0 0 0 0 0 0 0 0 0 0 127 0" result="hardAlpha"/>
<feOffset dy="2.57975"/>
<feGaussianBlur stdDeviation="1.28987"/>
<feComposite in2="hardAlpha" operator="out"/>
<feColorMatrix type="matrix" values="0 0 0 0 0 0 0 0 0 0 0 0 0 0 0 0 0 0 0.25 0"/>
<feBlend mode="normal" in2="BackgroundImageFix" result="effect1_dropShadow_445_832"/>
<feBlend mode="normal" in="SourceGraphic" in2="effect1_dropShadow_445_832" result="shape"/>
</filter>
</defs>
</svg>
