<svg width="310" height="97" viewBox="0 0 310 97" fill="none" xmlns="http://www.w3.org/2000/svg">
<path d="M12.8508 64.4486C60.1646 4.57616 79.1485 11.0015 96.9642 22.976C114.78 34.9504 86.1567 83.4241 129.383 81.6801C176.813 79.7666 150.361 -3.69379 191.3 4.57617C243.47 15.115 217.585 93.3625 255.553 93.3625C293.521 93.3625 292.839 59.1915 293.521 56.2709" stroke="#3F825E" stroke-width="7" stroke-linecap="round" stroke-linejoin="round" stroke-dasharray="14.02 14.02"/>
<circle cx="16" cy="55" r="14.5" fill="#E85F5F" stroke="black" stroke-linecap="square"/>
<path d="M16.1136 50.2727V59H15.0568V50.2727H16.1136Z" fill="black"/>
<circle cx="154.021" cy="70.4027" r="14.5" fill="#54DC93" stroke="black"/>
<path d="M152.817 65.6054V74.3327H151.76V65.6054H152.817ZM155.993 65.6054V74.3327H154.936V65.6054H155.993Z" fill="black"/>
<circle cx="294.794" cy="59.3044" r="14.5" fill="#FFF8E0" stroke="black"/>
<path d="M291.838 54.5071V63.2344H290.781V54.5071H291.838ZM295.014 54.5071V63.2344H293.957V54.5071H295.014ZM298.19 54.5071V63.2344H297.133V54.5071H298.19Z" fill="black"/>
</svg>
