<svg width="37" height="37" viewBox="0 0 37 37" fill="none" xmlns="http://www.w3.org/2000/svg">
<path d="M18.773 0.518066C14.273 0.518066 11.773 1.71807 11.773 1.71807V6.51807L8.24396 10.0471C7.65096 10.6401 8.00796 11.6351 8.84396 11.6951C10.861 11.8381 14.278 12.0181 18.773 12.0181C20.979 12.0181 22.925 11.9751 24.573 11.9141H24.556C24.802 12.8049 24.8389 13.7406 24.6638 14.648C24.4887 15.5555 24.1063 16.4102 23.5465 17.1456C22.9867 17.881 22.2646 18.4771 21.4365 18.8874C20.6084 19.2978 19.6967 19.5113 18.7725 19.5113C17.8483 19.5113 16.9365 19.2978 16.1084 18.8874C15.2803 18.4771 14.5582 17.881 13.9984 17.1456C13.4386 16.4102 13.0562 15.5555 12.8811 14.648C12.706 13.7406 12.7429 12.8049 12.989 11.9141C12.249 11.8871 11.569 11.8561 10.953 11.8241C10.7011 12.991 10.7137 14.1996 10.9897 15.3611C11.2657 16.5226 11.7981 17.6076 12.548 18.5365C13.2979 19.4654 14.2461 20.2148 15.3233 20.7296C16.4004 21.2444 17.5791 21.5115 18.773 21.5115C19.9668 21.5115 21.1455 21.2444 22.2226 20.7296C23.2998 20.2148 24.248 19.4654 24.9979 18.5365C25.7478 17.6076 26.2802 16.5226 26.5562 15.3611C26.8322 14.1996 26.8448 12.991 26.593 11.8241C27.2963 11.7873 27.9994 11.744 28.702 11.6941C29.538 11.6341 29.895 10.6401 29.302 10.0471L25.772 6.51807V1.71807C25.772 1.71807 23.273 0.518066 18.773 0.518066Z" fill="#FFF8E0"/>
<path fill-rule="evenodd" clip-rule="evenodd" d="M19.0609 22.5601L25.6029 24.5071L31.2099 20.6911C31.3603 20.5887 31.5357 20.5292 31.7173 20.5191C31.8989 20.5089 32.0799 20.5485 32.2406 20.6336C32.4014 20.7187 32.5359 20.846 32.6297 21.0018C32.7235 21.1577 32.773 21.3362 32.7729 21.5181V26.5181H30.7729V23.4081L26.7729 26.1301V34.5181C26.7729 35.2861 27.0619 35.9881 27.5369 36.5181H10.0089C10.4839 35.9881 10.7729 35.2861 10.7729 34.5181V26.0531L6.77295 23.3871V26.5181H4.77295V21.5181C4.77292 21.337 4.82204 21.1594 4.91507 21.0041C5.0081 20.8487 5.14155 20.7216 5.30118 20.6362C5.46081 20.5508 5.64064 20.5103 5.82147 20.5191C6.0023 20.5279 6.17735 20.5856 6.32795 20.6861L12.0239 24.4831L18.4839 22.5601C18.5776 22.5317 18.6751 22.5175 18.7729 22.5181C18.8559 22.5181 18.9389 22.5281 19.0199 22.5491L19.0279 22.5511C19.039 22.5542 19.05 22.5565 19.0609 22.5601ZM19.7729 24.8591L24.7729 26.3471V34.5181H19.7729V24.8591ZM12.7729 26.3471L17.7729 24.8591V34.5181H12.7729V26.3471Z" fill="#FFF8E0"/>
<path d="M31.7729 28.5181C30.9773 28.5181 30.2142 28.8341 29.6516 29.3967C29.089 29.9594 28.7729 30.7224 28.7729 31.5181V33.5181C28.7729 34.3137 29.089 35.0768 29.6516 35.6394C30.2142 36.202 30.9773 36.5181 31.7729 36.5181H36.7729V31.5181C36.7729 30.7224 36.4569 29.9594 35.8943 29.3967C35.3317 28.8341 34.5686 28.5181 33.7729 28.5181H31.7729ZM3.77295 28.5181C2.9773 28.5181 2.21424 28.8341 1.65163 29.3967C1.08902 29.9594 0.772949 30.7224 0.772949 31.5181V36.5181H5.77295C6.5686 36.5181 7.33166 36.202 7.89427 35.6394C8.45688 35.0768 8.77295 34.3137 8.77295 33.5181V31.5181C8.77295 30.7224 8.45688 29.9594 7.89427 29.3967C7.33166 28.8341 6.5686 28.5181 5.77295 28.5181H3.77295Z" fill="#FFF8E0"/>
</svg>
